<svg xmlns="http://www.w3.org/2000/svg" xmlns:xlink="http://www.w3.org/1999/xlink" viewBox="0 0 193.28 62.29"><defs><style>.cls-1{fill:none;}.cls-2{clip-path:url(#clip-path);}.cls-3{fill:#e0dfdf;opacity:0.5;isolation:isolate;}</style><clipPath id="clip-path"><rect class="cls-1" y="-28.09" width="193.28" height="90.38"/></clipPath></defs><g id="Layer_1" data-name="Layer 1"><g class="cls-2"><path class="cls-3" d="M-29.56,62.29h10.5l2.26,0,2,0,2.27,0,2,0,2.27,0,2,0L-4,62l2-.09,2.27-.1,2-.13,2.27-.14,2-.18,2.27-.21,2-.24L13,60.57l2-.33,2.26-.38,2-.45,2-.51,2.27-.58,2-.67,2.27-.74,2-.84L32,55.13l2-1,2.26-1.15,2-1.27,2.27-1.38,2-1.51,2.27-1.62,2-1.74L49,43.56l2-2,2.27-2.08,2-2.18,2.26-2.26,2-2.33,2.27-2.39,2-2.43L66,25.46,68,23l2.27-2.43,2-2.38,2-2.32,2.26-2.21,2-2.1,2.27-2,2-1.78L85,6.23l2-1.39,2.27-1.16,2-.92,2.27-.66,2-.41,2.27-.13,2,.13L102,2.1l2,.66,2.27.92,2,1.16,2.26,1.39,2,1.6,2.27,1.78,2,2,2.27,2.1,2,2.21,2,2.32,2.27,2.38,2,2.43,2.27,2.45,2,2.46,2.27,2.43,2,2.39L138,35.07l2,2.26,2.27,2.18,2,2.08,2.27,2,2,1.86,2.26,1.74,2,1.62,2.27,1.51,2,1.38,2.27,1.27,2,1.15,2.27,1,2,.94,2.27.84,2,.74,2.27.67,2,.58,2,.51,2.27.45,2,.38,2.27.33,2,.29,2.27.24,2,.21,2.27.18,2,.14,2.27.13,2,.1,2.27.09,2,.07,2.26,0,2,0,2.27,0,2,0,2.27,0,2,0h8.51"/></g></g></svg>