<svg xmlns="http://www.w3.org/2000/svg" viewBox="0 0 193.28 67.59"><defs><style>.cls-1{fill:#e0e0df;}</style></defs><g id="Layer_1" data-name="Layer 1"><path class="cls-1" d="M99.22,39.37,99.15,41a.37.37,0,0,1-.33.35h0l-.17,1.84c0,.22-.11.39-.24.39h-.64c-.13,0-.24-.17-.24-.39l-.17-1.84h0A.36.36,0,0,1,97,41L97,39.37c0-.19.18-.3.4-.3h.39a.6.6,0,0,1-.27-.5.62.62,0,1,1,1.24,0,.59.59,0,0,1-.26.5h.37C99,39.07,99.22,39.18,99.22,39.37Z"/><path class="cls-1" d="M102.34,39.37,102.26,41a.37.37,0,0,1-.33.35h0l-.16,1.84c0,.22-.11.39-.25.39h-.63c-.14,0-.25-.17-.25-.39l-.16-1.84h0a.37.37,0,0,1-.34-.35l-.08-1.65c0-.19.18-.3.4-.3h.39a.59.59,0,0,1-.26-.5.61.61,0,0,1,.62-.62.62.62,0,0,1,.36,1.12h.37C102.16,39.07,102.34,39.18,102.34,39.37Z"/><path class="cls-1" d="M105.46,39.37,105.38,41a.37.37,0,0,1-.33.35h0l-.17,1.84c0,.22-.11.39-.24.39H104c-.13,0-.24-.17-.24-.39l-.17-1.84h0a.36.36,0,0,1-.33-.35l-.08-1.65c0-.19.18-.3.4-.3H104a.6.6,0,0,1-.27-.5.62.62,0,0,1,.62-.62.61.61,0,0,1,.62.62.59.59,0,0,1-.26.5h.38C105.28,39.07,105.46,39.18,105.46,39.37Z"/><path class="cls-1" d="M108.57,39.37,108.49,41a.36.36,0,0,1-.32.35h0L108,43.21c0,.22-.11.39-.24.39h-.64c-.14,0-.24-.17-.24-.39l-.17-1.84h0a.37.37,0,0,1-.34-.35l-.08-1.65c0-.19.18-.3.4-.3h.39a.62.62,0,1,1,.72,0h.37C108.39,39.07,108.57,39.18,108.57,39.37Z"/><path class="cls-1" d="M111.69,39.37,111.61,41a.37.37,0,0,1-.33.35h0l-.16,1.84c0,.22-.12.39-.25.39h-.64c-.13,0-.24-.17-.24-.39l-.17-1.84h0a.36.36,0,0,1-.33-.35l-.08-1.65c0-.19.18-.3.4-.3h.39a.6.6,0,0,1-.27-.5.63.63,0,0,1,1.25,0,.6.6,0,0,1-.27.5h.38C111.51,39.07,111.69,39.18,111.69,39.37Z"/><path class="cls-1" d="M114.8,39.37,114.73,41a.37.37,0,0,1-.33.35h0l-.17,1.84c0,.22-.11.39-.24.39h-.64c-.13,0-.24-.17-.24-.39l-.17-1.84h0a.37.37,0,0,1-.34-.35l-.07-1.65c0-.19.17-.3.39-.3h.4a.6.6,0,0,1-.27-.5.62.62,0,1,1,1,.5h.37C114.62,39.07,114.8,39.18,114.8,39.37Z"/><path class="cls-1" d="M117.92,39.37,117.84,41a.37.37,0,0,1-.33.35h0l-.16,1.84c0,.22-.11.39-.25.39h-.64c-.13,0-.24-.17-.24-.39l-.17-1.84h0a.37.37,0,0,1-.33-.35l-.08-1.65c0-.19.18-.3.4-.3h.39a.56.56,0,0,1-.26-.5.61.61,0,0,1,.62-.62.62.62,0,0,1,.62.62.6.6,0,0,1-.27.5h.38C117.74,39.07,117.92,39.18,117.92,39.37Z"/><path class="cls-1" d="M121,39.37,121,41a.37.37,0,0,1-.33.35h0l-.17,1.84c0,.22-.11.39-.24.39h-.64c-.13,0-.24-.17-.24-.39l-.17-1.84h0a.36.36,0,0,1-.33-.35l-.08-1.65c0-.19.18-.3.4-.3h.39a.6.6,0,0,1-.27-.5.62.62,0,1,1,1.24,0,.59.59,0,0,1-.26.5h.37C120.85,39.07,121,39.18,121,39.37Z"/><path class="cls-1" d="M124.15,39.37,124.07,41a.37.37,0,0,1-.33.35h0l-.16,1.84c0,.22-.11.39-.25.39h-.63c-.14,0-.25-.17-.25-.39l-.16-1.84h0A.37.37,0,0,1,122,41l-.08-1.65c0-.19.18-.3.4-.3h.39a.59.59,0,0,1-.26-.5A.61.61,0,0,1,123,38a.62.62,0,0,1,.36,1.12h.37C124,39.07,124.15,39.18,124.15,39.37Z"/><path class="cls-1" d="M127.27,39.37,127.19,41a.37.37,0,0,1-.33.35h0l-.17,1.84c0,.22-.11.39-.24.39h-.64c-.13,0-.24-.17-.24-.39l-.17-1.84h0a.36.36,0,0,1-.33-.35L125,39.37c0-.19.18-.3.4-.3h.39a.6.6,0,0,1-.27-.5.62.62,0,0,1,.62-.62.61.61,0,0,1,.62.62.59.59,0,0,1-.26.5h.38C127.09,39.07,127.27,39.18,127.27,39.37Z"/><path class="cls-1" d="M130.38,39.37,130.3,41a.36.36,0,0,1-.32.35h0l-.17,1.84c0,.22-.11.39-.24.39h-.64c-.14,0-.24-.17-.24-.39l-.17-1.84h0a.37.37,0,0,1-.34-.35l-.08-1.65c0-.19.18-.3.4-.3h.39a.62.62,0,1,1,.72,0H130C130.2,39.07,130.38,39.18,130.38,39.37Z"/><path class="cls-1" d="M133.5,39.37,133.42,41a.37.37,0,0,1-.33.35h0l-.16,1.84c0,.22-.12.39-.25.39H132c-.13,0-.24-.17-.24-.39l-.17-1.84h0a.36.36,0,0,1-.33-.35l-.08-1.65c0-.19.18-.3.4-.3H132a.6.6,0,0,1-.27-.5.63.63,0,0,1,1.25,0,.6.6,0,0,1-.27.5h.38C133.32,39.07,133.5,39.18,133.5,39.37Z"/><path class="cls-1" d="M136.61,39.37,136.53,41a.36.36,0,0,1-.32.35h0L136,43.21c0,.22-.11.39-.24.39h-.64c-.13,0-.24-.17-.24-.39l-.17-1.84h0a.37.37,0,0,1-.34-.35l-.07-1.65c0-.19.17-.3.39-.3h.4a.6.6,0,0,1-.27-.5.62.62,0,1,1,1,.5h.37C136.43,39.07,136.61,39.18,136.61,39.37Z"/><path class="cls-1" d="M139.73,39.37,139.65,41a.37.37,0,0,1-.33.35h0l-.16,1.84c0,.22-.11.39-.25.39h-.64c-.13,0-.24-.17-.24-.39l-.17-1.84h0a.37.37,0,0,1-.33-.35l-.08-1.65c0-.19.18-.3.4-.3h.39a.56.56,0,0,1-.26-.5.61.61,0,0,1,.62-.62.62.62,0,0,1,.62.62.6.6,0,0,1-.27.5h.38C139.55,39.07,139.73,39.18,139.73,39.37Z"/><path class="cls-1" d="M100.77,33.53l-.08,1.64a.37.37,0,0,1-.33.35h0l-.17,1.84c0,.22-.11.4-.24.4h-.64c-.13,0-.24-.18-.24-.4l-.17-1.84h0a.35.35,0,0,1-.33-.35l-.08-1.64c0-.2.18-.3.4-.3h.39a.63.63,0,1,1,.71,0h.38C100.59,33.23,100.77,33.33,100.77,33.53Z"/><path class="cls-1" d="M103.88,33.53l-.08,1.64a.36.36,0,0,1-.32.35h0l-.17,1.84c0,.22-.11.4-.24.4h-.64c-.13,0-.24-.18-.24-.4L102,35.52h0a.36.36,0,0,1-.34-.35l-.07-1.64c0-.2.17-.3.39-.3h.39a.64.64,0,0,1-.26-.51.62.62,0,0,1,1.24,0,.64.64,0,0,1-.26.51h.37C103.7,33.23,103.88,33.33,103.88,33.53Z"/><path class="cls-1" d="M107,33.53l-.08,1.64a.37.37,0,0,1-.33.35h0l-.16,1.84c0,.22-.12.4-.25.4h-.64c-.13,0-.24-.18-.24-.4l-.17-1.84h0a.36.36,0,0,1-.33-.35l-.08-1.64c0-.2.18-.3.4-.3h.39a.59.59,0,0,1-.26-.51.62.62,0,0,1,.62-.62.62.62,0,0,1,.35,1.13h.38C106.82,33.23,107,33.33,107,33.53Z"/><path class="cls-1" d="M110.11,33.53,110,35.17a.37.37,0,0,1-.33.35h0l-.17,1.84c0,.22-.11.4-.24.4h-.64c-.13,0-.24-.18-.24-.4l-.17-1.84h0a.34.34,0,0,1-.33-.35l-.08-1.64c0-.2.17-.3.39-.3h.4a.62.62,0,1,1,1-.51.64.64,0,0,1-.26.51h.37C109.93,33.23,110.11,33.33,110.11,33.53Z"/><path class="cls-1" d="M113.23,33.53l-.08,1.64a.37.37,0,0,1-.33.35h0l-.16,1.84c0,.22-.11.4-.25.4h-.63c-.14,0-.25-.18-.25-.4l-.16-1.84h0a.36.36,0,0,1-.34-.35L111,33.53c0-.2.18-.3.4-.3h.39a.59.59,0,0,1-.26-.51.62.62,0,0,1,.62-.62.62.62,0,0,1,.62.62.64.64,0,0,1-.26.51h.37C113.05,33.23,113.23,33.33,113.23,33.53Z"/><path class="cls-1" d="M116.35,33.53l-.08,1.64a.37.37,0,0,1-.33.35h0l-.17,1.84c0,.22-.11.4-.24.4h-.64c-.13,0-.24-.18-.24-.4l-.17-1.84h0a.35.35,0,0,1-.33-.35l-.08-1.64c0-.2.18-.3.4-.3h.39a.62.62,0,0,1,.35-1.13.62.62,0,0,1,.36,1.13h.37C116.16,33.23,116.35,33.33,116.35,33.53Z"/><path class="cls-1" d="M119.46,33.53l-.08,1.64a.36.36,0,0,1-.33.35h0l-.16,1.84c0,.22-.11.4-.25.4H118c-.14,0-.24-.18-.24-.4l-.17-1.84h0a.36.36,0,0,1-.34-.35l-.08-1.64c0-.2.18-.3.4-.3H118a.64.64,0,0,1-.26-.51.62.62,0,0,1,1.24,0,.64.64,0,0,1-.26.51h.37C119.28,33.23,119.46,33.33,119.46,33.53Z"/><path class="cls-1" d="M122.58,33.53l-.08,1.64a.37.37,0,0,1-.33.35h0L122,37.36c0,.22-.11.4-.24.4h-.64c-.13,0-.24-.18-.24-.4l-.17-1.84h0a.35.35,0,0,1-.33-.35l-.08-1.64c0-.2.18-.3.4-.3h.39a.62.62,0,0,1,.35-1.13.62.62,0,0,1,.62.62.59.59,0,0,1-.26.51h.38C122.4,33.23,122.58,33.33,122.58,33.53Z"/><path class="cls-1" d="M125.69,33.53l-.08,1.64a.36.36,0,0,1-.32.35h0l-.17,1.84c0,.22-.11.4-.24.4h-.64c-.13,0-.24-.18-.24-.4l-.17-1.84h0a.36.36,0,0,1-.34-.35l-.07-1.64c0-.2.17-.3.39-.3h.39a.64.64,0,0,1-.26-.51.62.62,0,0,1,1.24,0,.64.64,0,0,1-.26.51h.37C125.51,33.23,125.69,33.33,125.69,33.53Z"/><path class="cls-1" d="M128.81,33.53l-.08,1.64a.37.37,0,0,1-.33.35h0l-.16,1.84c0,.22-.12.4-.25.4h-.64c-.13,0-.24-.18-.24-.4l-.17-1.84h0a.35.35,0,0,1-.33-.35l-.08-1.64c0-.2.18-.3.4-.3h.39a.59.59,0,0,1-.26-.51.62.62,0,0,1,.62-.62.62.62,0,0,1,.35,1.13h.38C128.63,33.23,128.81,33.33,128.81,33.53Z"/><path class="cls-1" d="M131.92,33.53l-.07,1.64a.37.37,0,0,1-.33.35h0l-.17,1.84c0,.22-.11.4-.24.4h-.64c-.13,0-.24-.18-.24-.4l-.17-1.84h0a.34.34,0,0,1-.33-.35l-.08-1.64c0-.2.17-.3.39-.3h.4a.62.62,0,1,1,1-.51.64.64,0,0,1-.26.51h.37C131.74,33.23,131.92,33.33,131.92,33.53Z"/><path class="cls-1" d="M135,33.53,135,35.17a.37.37,0,0,1-.33.35h0l-.16,1.84c0,.22-.11.4-.25.4h-.64c-.13,0-.24-.18-.24-.4l-.16-1.84h0a.36.36,0,0,1-.34-.35l-.08-1.64c0-.2.18-.3.4-.3h.39a.59.59,0,0,1-.26-.51.62.62,0,0,1,.62-.62.62.62,0,0,1,.62.62.64.64,0,0,1-.26.51h.37C134.86,33.23,135,33.33,135,33.53Z"/><path class="cls-1" d="M100.78,21.83l-.08,1.65a.36.36,0,0,1-.32.35h0l-.17,1.84c0,.21-.11.39-.24.39h-.64c-.13,0-.24-.18-.24-.39l-.17-1.84h0a.37.37,0,0,1-.34-.35l-.07-1.65c0-.19.17-.3.39-.3h.39A.62.62,0,0,1,99,21a.62.62,0,1,1,1.24,0,.64.64,0,0,1-.26.51h.37C100.6,21.53,100.78,21.64,100.78,21.83Z"/><path class="cls-1" d="M103.9,21.83l-.08,1.65a.37.37,0,0,1-.33.35h0l-.16,1.84c0,.21-.12.39-.25.39h-.64c-.13,0-.24-.18-.24-.39L102,23.83h0a.37.37,0,0,1-.33-.35l-.08-1.65c0-.19.18-.3.4-.3h.39a.57.57,0,0,1-.26-.51.62.62,0,0,1,.62-.62.62.62,0,0,1,.35,1.13h.38C103.72,21.53,103.9,21.64,103.9,21.83Z"/><path class="cls-1" d="M107,21.83l-.07,1.65a.37.37,0,0,1-.33.35h0l-.17,1.84c0,.21-.11.39-.24.39h-.64c-.13,0-.24-.18-.24-.39l-.17-1.84h0a.36.36,0,0,1-.33-.35l-.08-1.65c0-.19.17-.3.39-.3h.4a.6.6,0,0,1-.27-.51.62.62,0,0,1,1.24,0,.64.64,0,0,1-.26.51h.37C106.83,21.53,107,21.64,107,21.83Z"/><path class="cls-1" d="M110.13,21.83l-.08,1.65a.37.37,0,0,1-.33.35h0l-.16,1.84c0,.21-.11.39-.25.39h-.64c-.13,0-.24-.18-.24-.39l-.16-1.84h0a.37.37,0,0,1-.34-.35l-.08-1.65c0-.19.18-.3.4-.3h.39a.57.57,0,0,1-.26-.51.62.62,0,0,1,.62-.62.62.62,0,0,1,.62.62.64.64,0,0,1-.26.51h.37C110,21.53,110.13,21.64,110.13,21.83Z"/><path class="cls-1" d="M113.25,21.83l-.08,1.65a.37.37,0,0,1-.33.35h0l-.17,1.84c0,.21-.11.39-.24.39h-.64c-.13,0-.24-.18-.24-.39l-.17-1.84h0a.37.37,0,0,1-.33-.35L111,21.83c0-.19.18-.3.4-.3h.39a.6.6,0,0,1-.27-.51.62.62,0,0,1,.62-.62.62.62,0,0,1,.36,1.13h.37C113.06,21.53,113.25,21.64,113.25,21.83Z"/><path class="cls-1" d="M116.36,21.83l-.08,1.65a.36.36,0,0,1-.33.35h0l-.16,1.84c0,.21-.11.39-.25.39h-.63c-.14,0-.24-.18-.24-.39l-.17-1.84h0a.37.37,0,0,1-.34-.35l-.08-1.65c0-.19.18-.3.4-.3h.39a.62.62,0,0,1-.26-.51.62.62,0,0,1,1.24,0,.64.64,0,0,1-.26.51H116C116.18,21.53,116.36,21.64,116.36,21.83Z"/><path class="cls-1" d="M119.48,21.83l-.08,1.65a.37.37,0,0,1-.33.35h0l-.17,1.84c0,.21-.11.39-.24.39H118c-.13,0-.24-.18-.24-.39l-.17-1.84h0a.37.37,0,0,1-.33-.35l-.08-1.65c0-.19.18-.3.4-.3H118a.6.6,0,0,1-.27-.51.62.62,0,0,1,.62-.62.62.62,0,0,1,.36,1.13h.38C119.3,21.53,119.48,21.64,119.48,21.83Z"/><path class="cls-1" d="M122.59,21.83l-.08,1.65a.36.36,0,0,1-.32.35h0L122,25.67c0,.21-.11.39-.24.39h-.64c-.13,0-.24-.18-.24-.39l-.17-1.84h0a.37.37,0,0,1-.34-.35l-.07-1.65c0-.19.17-.3.39-.3h.39a.62.62,0,0,1-.26-.51.62.62,0,0,1,1.24,0,.64.64,0,0,1-.26.51h.37C122.41,21.53,122.59,21.64,122.59,21.83Z"/><path class="cls-1" d="M125.71,21.83l-.08,1.65a.37.37,0,0,1-.33.35h0l-.16,1.84c0,.21-.12.39-.25.39h-.64c-.13,0-.24-.18-.24-.39l-.17-1.84h0a.37.37,0,0,1-.33-.35l-.08-1.65c0-.19.18-.3.4-.3h.39A.57.57,0,0,1,124,21a.61.61,0,0,1,.62-.62.62.62,0,0,1,.35,1.13h.38C125.53,21.53,125.71,21.64,125.71,21.83Z"/><path class="cls-1" d="M99.22,27.68l-.07,1.64a.38.38,0,0,1-.33.36h0l-.17,1.84c0,.21-.11.39-.24.39h-.64c-.13,0-.24-.18-.24-.39l-.17-1.84h0a.37.37,0,0,1-.33-.36L97,27.68c0-.19.18-.3.4-.3h.39a.62.62,0,1,1,1-.51.62.62,0,0,1-.26.51h.37C99,27.38,99.22,27.49,99.22,27.68Z"/><path class="cls-1" d="M102.34,27.68l-.08,1.64a.37.37,0,0,1-.33.36h0l-.16,1.84c0,.21-.11.39-.25.39h-.63c-.14,0-.25-.18-.25-.39l-.16-1.84h0a.38.38,0,0,1-.34-.36l-.08-1.64c0-.19.18-.3.4-.3h.39a.62.62,0,0,1,.36-1.13.62.62,0,0,1,.62.62.64.64,0,0,1-.26.51h.37C102.16,27.38,102.34,27.49,102.34,27.68Z"/><path class="cls-1" d="M105.46,27.68l-.08,1.64a.38.38,0,0,1-.33.36h0l-.17,1.84c0,.21-.11.39-.24.39H104c-.13,0-.24-.18-.24-.39l-.17-1.84h0a.37.37,0,0,1-.33-.36l-.08-1.64c0-.19.18-.3.4-.3H104a.62.62,0,0,1,.35-1.13.62.62,0,0,1,.36,1.13h.38C105.28,27.38,105.46,27.49,105.46,27.68Z"/><path class="cls-1" d="M108.57,27.68l-.08,1.64a.36.36,0,0,1-.32.36h0L108,31.52c0,.21-.11.39-.24.39h-.64c-.14,0-.24-.18-.24-.39l-.17-1.84h0a.38.38,0,0,1-.34-.36l-.08-1.64c0-.19.18-.3.4-.3h.39a.64.64,0,0,1-.26-.51.62.62,0,0,1,1.24,0,.64.64,0,0,1-.26.51h.37C108.39,27.38,108.57,27.49,108.57,27.68Z"/><path class="cls-1" d="M111.69,27.68l-.08,1.64a.38.38,0,0,1-.33.36h0l-.16,1.84c0,.21-.12.39-.25.39h-.64c-.13,0-.24-.18-.24-.39l-.17-1.84h0a.37.37,0,0,1-.33-.36l-.08-1.64c0-.19.18-.3.4-.3h.39a.63.63,0,1,1,.71,0h.38C111.51,27.38,111.69,27.49,111.69,27.68Z"/><path class="cls-1" d="M114.8,27.68l-.07,1.64a.38.38,0,0,1-.33.36h0l-.17,1.84c0,.21-.11.39-.24.39h-.64c-.13,0-.24-.18-.24-.39l-.17-1.84h0a.38.38,0,0,1-.34-.36l-.07-1.64c0-.19.17-.3.39-.3h.4a.62.62,0,1,1,1-.51.64.64,0,0,1-.26.51h.37C114.62,27.38,114.8,27.49,114.8,27.68Z"/><path class="cls-1" d="M117.92,27.68l-.08,1.64a.38.38,0,0,1-.33.36h0l-.16,1.84c0,.21-.11.39-.25.39h-.64c-.13,0-.24-.18-.24-.39l-.17-1.84h0a.38.38,0,0,1-.33-.36l-.08-1.64c0-.19.18-.3.4-.3h.39a.59.59,0,0,1-.26-.51.62.62,0,0,1,.62-.62.62.62,0,0,1,.35,1.13h.38C117.74,27.38,117.92,27.49,117.92,27.68Z"/><path class="cls-1" d="M121,27.68,121,29.32a.38.38,0,0,1-.33.36h0l-.17,1.84c0,.21-.11.39-.24.39h-.64c-.13,0-.24-.18-.24-.39l-.17-1.84h0a.37.37,0,0,1-.33-.36l-.08-1.64c0-.19.18-.3.4-.3h.39a.62.62,0,1,1,1-.51.62.62,0,0,1-.26.51h.37C120.85,27.38,121,27.49,121,27.68Z"/><path class="cls-1" d="M124.15,27.68l-.08,1.64a.37.37,0,0,1-.33.36h0l-.16,1.84c0,.21-.11.39-.25.39h-.63c-.14,0-.25-.18-.25-.39l-.16-1.84h0a.38.38,0,0,1-.34-.36l-.08-1.64c0-.19.18-.3.4-.3h.39a.62.62,0,0,1,.36-1.13.62.62,0,0,1,.62.62.64.64,0,0,1-.26.51h.37C124,27.38,124.15,27.49,124.15,27.68Z"/><path class="cls-1" d="M127.27,27.68l-.08,1.64a.38.38,0,0,1-.33.36h0l-.17,1.84c0,.21-.11.39-.24.39h-.64c-.13,0-.24-.18-.24-.39l-.17-1.84h0a.37.37,0,0,1-.33-.36L125,27.68c0-.19.18-.3.4-.3h.39a.62.62,0,0,1,.35-1.13.62.62,0,0,1,.36,1.13h.38C127.09,27.38,127.27,27.49,127.27,27.68Z"/><path class="cls-1" d="M130.38,27.68l-.08,1.64a.36.36,0,0,1-.32.36h0l-.17,1.84c0,.21-.11.39-.24.39h-.64c-.14,0-.24-.18-.24-.39l-.17-1.84h0a.38.38,0,0,1-.34-.36l-.08-1.64c0-.19.18-.3.4-.3h.39a.64.64,0,0,1-.26-.51.62.62,0,0,1,1.24,0,.64.64,0,0,1-.26.51H130C130.2,27.38,130.38,27.49,130.38,27.68Z"/><path class="cls-1" d="M99.22,15.69l-.07,1.65a.37.37,0,0,1-.33.35h0l-.17,1.84c0,.21-.11.39-.24.39h-.64c-.13,0-.24-.18-.24-.39l-.17-1.84h0a.37.37,0,0,1-.33-.35L97,15.69c0-.19.18-.3.4-.3h.39a.6.6,0,0,1-.27-.5.62.62,0,1,1,1.24,0,.59.59,0,0,1-.26.51h.37C99,15.39,99.22,15.5,99.22,15.69Z"/><path class="cls-1" d="M102.34,15.69l-.08,1.65a.37.37,0,0,1-.33.35h0l-.16,1.84c0,.21-.11.39-.25.39h-.63c-.14,0-.25-.18-.25-.39l-.16-1.84h0a.37.37,0,0,1-.34-.35l-.08-1.65c0-.19.18-.3.4-.3h.39a.59.59,0,0,1-.26-.5.62.62,0,1,1,1,.5h.37C102.16,15.39,102.34,15.5,102.34,15.69Z"/><path class="cls-1" d="M105.46,15.69l-.08,1.65a.37.37,0,0,1-.33.35h0l-.17,1.84c0,.21-.11.39-.24.39H104c-.13,0-.24-.18-.24-.39l-.17-1.84h0a.37.37,0,0,1-.33-.35l-.08-1.65c0-.19.18-.3.4-.3H104a.6.6,0,0,1-.27-.5.63.63,0,0,1,.62-.63.62.62,0,0,1,.62.62.59.59,0,0,1-.26.51h.38C105.28,15.39,105.46,15.5,105.46,15.69Z"/><path class="cls-1" d="M108.57,15.69l-.08,1.65a.36.36,0,0,1-.32.35h0L108,19.53c0,.21-.11.39-.24.39h-.64c-.14,0-.24-.18-.24-.39l-.17-1.84h0a.37.37,0,0,1-.34-.35l-.08-1.65c0-.19.18-.3.4-.3h.39a.61.61,0,0,1-.26-.5.62.62,0,1,1,1.24,0,.62.62,0,0,1-.26.51h.37C108.39,15.39,108.57,15.5,108.57,15.69Z"/><path class="cls-1" d="M111.69,15.69l-.08,1.65a.37.37,0,0,1-.33.35h0l-.16,1.84c0,.21-.12.39-.25.39h-.64c-.13,0-.24-.18-.24-.39l-.17-1.84h0a.37.37,0,0,1-.33-.35l-.08-1.65c0-.19.18-.3.4-.3h.39a.6.6,0,0,1-.27-.5.63.63,0,0,1,1.25,0,.6.6,0,0,1-.27.51h.38C111.51,15.39,111.69,15.5,111.69,15.69Z"/><path class="cls-1" d="M114.8,15.69l-.07,1.65a.37.37,0,0,1-.33.35h0l-.17,1.84c0,.21-.11.39-.24.39h-.64c-.13,0-.24-.18-.24-.39l-.17-1.84h0a.37.37,0,0,1-.34-.35l-.07-1.65c0-.19.17-.3.39-.3h.4a.6.6,0,0,1-.27-.5.62.62,0,1,1,1.24,0,.62.62,0,0,1-.26.51h.37C114.62,15.39,114.8,15.5,114.8,15.69Z"/><path class="cls-1" d="M117.92,15.69l-.08,1.65a.37.37,0,0,1-.33.35h0l-.16,1.84c0,.21-.11.39-.25.39h-.64c-.13,0-.24-.18-.24-.39l-.17-1.84h0a.37.37,0,0,1-.33-.35l-.08-1.65c0-.19.18-.3.4-.3h.39a.56.56,0,0,1-.26-.5.62.62,0,1,1,1.24,0,.6.6,0,0,1-.27.51h.38C117.74,15.39,117.92,15.5,117.92,15.69Z"/><path class="cls-1" d="M100.77,9.85l-.08,1.64a.37.37,0,0,1-.33.35h0l-.17,1.84c0,.22-.11.39-.24.39h-.64c-.13,0-.24-.17-.24-.39l-.17-1.84h0a.35.35,0,0,1-.33-.35l-.08-1.64c0-.2.18-.31.4-.31h.39A.6.6,0,0,1,99,9a.63.63,0,0,1,1.25,0,.6.6,0,0,1-.27.5h.38C100.59,9.54,100.77,9.65,100.77,9.85Z"/><path class="cls-1" d="M103.88,9.85l-.08,1.64a.36.36,0,0,1-.32.35h0l-.17,1.84c0,.22-.11.39-.24.39h-.64c-.13,0-.24-.17-.24-.39L102,11.84h0a.36.36,0,0,1-.34-.35l-.07-1.64c0-.2.17-.31.39-.31h.39a.61.61,0,0,1-.26-.5.62.62,0,0,1,.62-.62.62.62,0,0,1,.36,1.12h.37C103.7,9.54,103.88,9.65,103.88,9.85Z"/><path class="cls-1" d="M107,9.85l-.08,1.64a.37.37,0,0,1-.33.35h0l-.16,1.84c0,.22-.12.39-.25.39h-.64c-.13,0-.24-.17-.24-.39l-.17-1.84h0a.36.36,0,0,1-.33-.35l-.08-1.64c0-.2.18-.31.4-.31h.39a.56.56,0,0,1-.26-.5.62.62,0,0,1,1.24,0,.6.6,0,0,1-.27.5h.38C106.82,9.54,107,9.65,107,9.85Z"/><path class="cls-1" d="M110.11,9.85,110,11.49a.37.37,0,0,1-.33.35h0l-.17,1.84c0,.22-.11.39-.24.39h-.64c-.13,0-.24-.17-.24-.39l-.17-1.84h0a.34.34,0,0,1-.33-.35l-.08-1.64c0-.2.17-.31.39-.31h.4a.6.6,0,0,1-.27-.5.62.62,0,0,1,.62-.62.62.62,0,0,1,.36,1.12h.37C109.93,9.54,110.11,9.65,110.11,9.85Z"/><path class="cls-1" d="M113.23,9.85l-.08,1.64a.37.37,0,0,1-.33.35h0l-.16,1.84c0,.22-.11.39-.25.39h-.63c-.14,0-.25-.17-.25-.39l-.16-1.84h0a.36.36,0,0,1-.34-.35L111,9.85c0-.2.18-.31.4-.31h.39a.56.56,0,0,1-.26-.5.62.62,0,1,1,1,.5h.37C113.05,9.54,113.23,9.65,113.23,9.85Z"/><path class="cls-1" d="M99.22,4l-.07,1.64a.37.37,0,0,1-.33.35h0l-.17,1.84c0,.22-.11.4-.24.4h-.64c-.13,0-.24-.18-.24-.4L97.36,6h0A.35.35,0,0,1,97,5.64L97,4c0-.2.18-.3.4-.3h.39a.62.62,0,1,1,1-.51.62.62,0,0,1-.26.51h.37C99,3.7,99.22,3.8,99.22,4Z"/><path class="cls-1" d="M102.34,4l-.08,1.64a.37.37,0,0,1-.33.35h0l-.16,1.84c0,.22-.11.4-.25.4h-.63c-.14,0-.25-.18-.25-.4L100.48,6h0a.36.36,0,0,1-.34-.35L100.06,4c0-.2.18-.3.4-.3h.39a.62.62,0,0,1,.36-1.13.62.62,0,0,1,.62.62.64.64,0,0,1-.26.51h.37C102.16,3.7,102.34,3.8,102.34,4Z"/><path class="cls-1" d="M105.46,4l-.08,1.64a.37.37,0,0,1-.33.35h0l-.17,1.84c0,.22-.11.4-.24.4H104c-.13,0-.24-.18-.24-.4L103.59,6h0a.35.35,0,0,1-.33-.35L103.18,4c0-.2.18-.3.4-.3H104a.62.62,0,0,1,.35-1.13.62.62,0,0,1,.36,1.13h.38C105.28,3.7,105.46,3.8,105.46,4Z"/><path class="cls-1" d="M146,63.06l-.08,1.64a.37.37,0,0,1-.33.35h0l-.16,1.84c0,.22-.11.4-.25.4h-.63c-.14,0-.25-.18-.25-.4l-.16-1.84h0a.36.36,0,0,1-.34-.35l-.08-1.64c0-.2.18-.3.4-.3h.39a.59.59,0,0,1-.26-.51.62.62,0,0,1,.62-.62.62.62,0,0,1,.62.62.64.64,0,0,1-.26.51h.37C145.78,62.76,146,62.86,146,63.06Z"/><path class="cls-1" d="M149.08,63.06,149,64.7a.37.37,0,0,1-.33.35h0l-.17,1.84c0,.22-.11.4-.24.4h-.64c-.13,0-.24-.18-.24-.4l-.17-1.84h0a.35.35,0,0,1-.33-.35l-.08-1.64c0-.2.18-.3.4-.3h.39a.62.62,0,0,1,.35-1.13.62.62,0,0,1,.36,1.13h.38C148.9,62.76,149.08,62.86,149.08,63.06Z"/><path class="cls-1" d="M152.19,63.06l-.08,1.64a.36.36,0,0,1-.32.35h0l-.17,1.84c0,.22-.11.4-.24.4h-.64c-.14,0-.24-.18-.24-.4l-.17-1.84h0a.36.36,0,0,1-.34-.35l-.08-1.64c0-.2.18-.3.4-.3h.39a.64.64,0,0,1-.26-.51.62.62,0,0,1,1.24,0,.64.64,0,0,1-.26.51h.37C152,62.76,152.19,62.86,152.19,63.06Z"/><path class="cls-1" d="M155.31,63.06l-.08,1.64a.37.37,0,0,1-.33.35h0l-.16,1.84c0,.22-.12.4-.25.4h-.64c-.13,0-.24-.18-.24-.4l-.17-1.84h0a.35.35,0,0,1-.33-.35L153,63.06c0-.2.18-.3.4-.3h.39a.63.63,0,1,1,.71,0h.38C155.13,62.76,155.31,62.86,155.31,63.06Z"/><path class="cls-1" d="M158.42,63.06l-.08,1.64a.36.36,0,0,1-.32.35h0l-.17,1.84c0,.22-.11.4-.24.4H157c-.13,0-.24-.18-.24-.4l-.17-1.84h0a.36.36,0,0,1-.34-.35l-.07-1.64c0-.2.17-.3.39-.3h.4a.62.62,0,1,1,1-.51.64.64,0,0,1-.26.51H158C158.24,62.76,158.42,62.86,158.42,63.06Z"/><path class="cls-1" d="M161.54,63.06l-.08,1.64a.37.37,0,0,1-.33.35h0L161,66.89c0,.22-.12.4-.25.4h-.64c-.13,0-.24-.18-.24-.4l-.17-1.84h0a.36.36,0,0,1-.33-.35l-.08-1.64c0-.2.18-.3.4-.3h.39a.59.59,0,0,1-.26-.51.62.62,0,0,1,.62-.62.62.62,0,0,1,.35,1.13h.38C161.36,62.76,161.54,62.86,161.54,63.06Z"/><path class="cls-1" d="M164.65,63.06l-.07,1.64a.37.37,0,0,1-.33.35h0l-.17,1.84c0,.22-.11.4-.24.4h-.64c-.13,0-.24-.18-.24-.4l-.17-1.84h0a.34.34,0,0,1-.33-.35l-.08-1.64c0-.2.17-.3.39-.3h.4a.62.62,0,1,1,1-.51.64.64,0,0,1-.26.51h.37C164.47,62.76,164.65,62.86,164.65,63.06Z"/><path class="cls-1" d="M167.77,63.06l-.08,1.64a.37.37,0,0,1-.33.35h0l-.16,1.84c0,.22-.11.4-.25.4h-.63c-.14,0-.25-.18-.25-.4l-.16-1.84h0a.36.36,0,0,1-.34-.35l-.08-1.64c0-.2.18-.3.4-.3h.39a.59.59,0,0,1-.26-.51.62.62,0,0,1,.62-.62.62.62,0,0,1,.62.62.64.64,0,0,1-.26.51h.37C167.59,62.76,167.77,62.86,167.77,63.06Z"/><path class="cls-1" d="M170.89,63.06l-.08,1.64a.37.37,0,0,1-.33.35h0l-.17,1.84c0,.22-.11.4-.24.4h-.64c-.13,0-.24-.18-.24-.4L169,65.05h0a.35.35,0,0,1-.33-.35l-.08-1.64c0-.2.18-.3.4-.3h.39a.62.62,0,0,1,.35-1.13.62.62,0,0,1,.36,1.13h.38C170.71,62.76,170.89,62.86,170.89,63.06Z"/><path class="cls-1" d="M174,63.06l-.08,1.64a.36.36,0,0,1-.33.35h0l-.16,1.84c0,.22-.11.4-.24.4h-.64c-.14,0-.24-.18-.24-.4l-.17-1.84h0a.36.36,0,0,1-.34-.35l-.08-1.64c0-.2.18-.3.4-.3h.39a.64.64,0,0,1-.26-.51.62.62,0,0,1,1.24,0,.64.64,0,0,1-.26.51h.37C173.82,62.76,174,62.86,174,63.06Z"/><path class="cls-1" d="M177.12,63.06,177,64.7a.37.37,0,0,1-.33.35h0l-.17,1.84c0,.22-.11.4-.24.4h-.64c-.13,0-.24-.18-.24-.4l-.17-1.84h0a.35.35,0,0,1-.33-.35l-.08-1.64c0-.2.18-.3.4-.3h.39a.63.63,0,1,1,.71,0h.38C176.94,62.76,177.12,62.86,177.12,63.06Z"/><path class="cls-1" d="M180.23,63.06l-.08,1.64a.36.36,0,0,1-.32.35h0l-.17,1.84c0,.22-.11.4-.24.4h-.64c-.13,0-.24-.18-.24-.4l-.17-1.84h0a.36.36,0,0,1-.34-.35L178,63.06c0-.2.17-.3.39-.3h.39a.64.64,0,0,1-.26-.51.62.62,0,0,1,1.24,0,.64.64,0,0,1-.26.51h.37C180.05,62.76,180.23,62.86,180.23,63.06Z"/><path class="cls-1" d="M183.35,63.06l-.08,1.64a.37.37,0,0,1-.33.35h0l-.16,1.84c0,.22-.12.4-.25.4h-.64c-.13,0-.24-.18-.24-.4l-.17-1.84h0a.36.36,0,0,1-.33-.35l-.08-1.64c0-.2.18-.3.4-.3h.39a.59.59,0,0,1-.26-.51.62.62,0,0,1,.62-.62.62.62,0,0,1,.35,1.13H183C183.17,62.76,183.35,62.86,183.35,63.06Z"/><path class="cls-1" d="M186.46,63.06l-.07,1.64a.37.37,0,0,1-.33.35h0l-.17,1.84c0,.22-.11.4-.24.4H185c-.13,0-.24-.18-.24-.4l-.17-1.84h0a.34.34,0,0,1-.33-.35l-.08-1.64c0-.2.17-.3.39-.3h.4a.62.62,0,1,1,1-.51.64.64,0,0,1-.26.51h.37C186.28,62.76,186.46,62.86,186.46,63.06Z"/><path class="cls-1" d="M189.58,63.06l-.08,1.64a.37.37,0,0,1-.33.35h0L189,66.89c0,.22-.11.4-.25.4h-.63c-.14,0-.25-.18-.25-.4l-.16-1.84h0a.36.36,0,0,1-.34-.35l-.08-1.64c0-.2.18-.3.4-.3h.39a.59.59,0,0,1-.26-.51.62.62,0,0,1,.62-.62.62.62,0,0,1,.62.62.64.64,0,0,1-.26.51h.37C189.4,62.76,189.58,62.86,189.58,63.06Z"/><path class="cls-1" d="M99.22,63.06l-.07,1.64a.37.37,0,0,1-.33.35h0l-.17,1.84c0,.22-.11.4-.24.4h-.64c-.13,0-.24-.18-.24-.4l-.17-1.84h0A.35.35,0,0,1,97,64.7L97,63.06c0-.2.18-.3.4-.3h.39a.62.62,0,1,1,1-.51.62.62,0,0,1-.26.51h.37C99,62.76,99.22,62.86,99.22,63.06Z"/><path class="cls-1" d="M102.34,63.06l-.08,1.64a.37.37,0,0,1-.33.35h0l-.16,1.84c0,.22-.11.4-.25.4h-.63c-.14,0-.25-.18-.25-.4l-.16-1.84h0a.36.36,0,0,1-.34-.35l-.08-1.64c0-.2.18-.3.4-.3h.39a.62.62,0,0,1,.36-1.13.62.62,0,0,1,.62.62.64.64,0,0,1-.26.51h.37C102.16,62.76,102.34,62.86,102.34,63.06Z"/><path class="cls-1" d="M105.46,63.06l-.08,1.64a.37.37,0,0,1-.33.35h0l-.17,1.84c0,.22-.11.4-.24.4H104c-.13,0-.24-.18-.24-.4l-.17-1.84h0a.35.35,0,0,1-.33-.35l-.08-1.64c0-.2.18-.3.4-.3H104a.62.62,0,0,1,.35-1.13.62.62,0,0,1,.36,1.13h.38C105.28,62.76,105.46,62.86,105.46,63.06Z"/><path class="cls-1" d="M108.57,63.06l-.08,1.64a.36.36,0,0,1-.32.35h0L108,66.89c0,.22-.11.4-.24.4h-.64c-.14,0-.24-.18-.24-.4l-.17-1.84h0a.36.36,0,0,1-.34-.35l-.08-1.64c0-.2.18-.3.4-.3h.39a.64.64,0,0,1-.26-.51.62.62,0,0,1,1.24,0,.64.64,0,0,1-.26.51h.37C108.39,62.76,108.57,62.86,108.57,63.06Z"/><path class="cls-1" d="M111.69,63.06l-.08,1.64a.37.37,0,0,1-.33.35h0l-.16,1.84c0,.22-.12.4-.25.4h-.64c-.13,0-.24-.18-.24-.4l-.17-1.84h0a.35.35,0,0,1-.33-.35l-.08-1.64c0-.2.18-.3.4-.3h.39a.63.63,0,1,1,.71,0h.38C111.51,62.76,111.69,62.86,111.69,63.06Z"/><path class="cls-1" d="M114.8,63.06l-.07,1.64a.37.37,0,0,1-.33.35h0l-.17,1.84c0,.22-.11.4-.24.4h-.64c-.13,0-.24-.18-.24-.4l-.17-1.84h0a.36.36,0,0,1-.34-.35l-.07-1.64c0-.2.17-.3.39-.3h.4a.62.62,0,1,1,1-.51.64.64,0,0,1-.26.51h.37C114.62,62.76,114.8,62.86,114.8,63.06Z"/><path class="cls-1" d="M117.92,63.06l-.08,1.64a.37.37,0,0,1-.33.35h0l-.16,1.84c0,.22-.11.4-.25.4h-.64c-.13,0-.24-.18-.24-.4l-.17-1.84h0a.36.36,0,0,1-.33-.35l-.08-1.64c0-.2.18-.3.4-.3h.39a.59.59,0,0,1-.26-.51.62.62,0,0,1,.62-.62.62.62,0,0,1,.35,1.13h.38C117.74,62.76,117.92,62.86,117.92,63.06Z"/><path class="cls-1" d="M121,63.06,121,64.7a.37.37,0,0,1-.33.35h0l-.17,1.84c0,.22-.11.4-.24.4h-.64c-.13,0-.24-.18-.24-.4l-.17-1.84h0a.35.35,0,0,1-.33-.35l-.08-1.64c0-.2.18-.3.4-.3h.39a.62.62,0,1,1,1-.51.62.62,0,0,1-.26.51h.37C120.85,62.76,121,62.86,121,63.06Z"/><path class="cls-1" d="M124.15,63.06l-.08,1.64a.37.37,0,0,1-.33.35h0l-.16,1.84c0,.22-.11.4-.25.4h-.63c-.14,0-.25-.18-.25-.4l-.16-1.84h0a.36.36,0,0,1-.34-.35l-.08-1.64c0-.2.18-.3.4-.3h.39a.62.62,0,0,1,.36-1.13.62.62,0,0,1,.62.62.64.64,0,0,1-.26.51h.37C124,62.76,124.15,62.86,124.15,63.06Z"/><path class="cls-1" d="M127.27,63.06l-.08,1.64a.37.37,0,0,1-.33.35h0l-.17,1.84c0,.22-.11.4-.24.4h-.64c-.13,0-.24-.18-.24-.4l-.17-1.84h0a.35.35,0,0,1-.33-.35L125,63.06c0-.2.18-.3.4-.3h.39a.62.62,0,0,1,.35-1.13.62.62,0,0,1,.36,1.13h.38C127.09,62.76,127.27,62.86,127.27,63.06Z"/><path class="cls-1" d="M130.38,63.06l-.08,1.64a.36.36,0,0,1-.32.35h0l-.17,1.84c0,.22-.11.4-.24.4h-.64c-.14,0-.24-.18-.24-.4l-.17-1.84h0a.36.36,0,0,1-.34-.35l-.08-1.64c0-.2.18-.3.4-.3h.39a.64.64,0,0,1-.26-.51.62.62,0,0,1,1.24,0,.64.64,0,0,1-.26.51H130C130.2,62.76,130.38,62.86,130.38,63.06Z"/><path class="cls-1" d="M133.5,63.06l-.08,1.64a.37.37,0,0,1-.33.35h0l-.16,1.84c0,.22-.12.4-.25.4H132c-.13,0-.24-.18-.24-.4l-.17-1.84h0a.35.35,0,0,1-.33-.35l-.08-1.64c0-.2.18-.3.4-.3H132a.63.63,0,1,1,.71,0h.38C133.32,62.76,133.5,62.86,133.5,63.06Z"/><path class="cls-1" d="M136.61,63.06l-.08,1.64a.36.36,0,0,1-.32.35h0L136,66.89c0,.22-.11.4-.24.4h-.64c-.13,0-.24-.18-.24-.4l-.17-1.84h0a.36.36,0,0,1-.34-.35l-.07-1.64c0-.2.17-.3.39-.3h.4a.62.62,0,1,1,1-.51.64.64,0,0,1-.26.51h.37C136.43,62.76,136.61,62.86,136.61,63.06Z"/><path class="cls-1" d="M139.73,63.06l-.08,1.64a.37.37,0,0,1-.33.35h0l-.16,1.84c0,.22-.11.4-.25.4h-.64c-.13,0-.24-.18-.24-.4l-.17-1.84h0a.36.36,0,0,1-.33-.35l-.08-1.64c0-.2.18-.3.4-.3h.39a.59.59,0,0,1-.26-.51.62.62,0,0,1,.62-.62.62.62,0,0,1,.35,1.13h.38C139.55,62.76,139.73,62.86,139.73,63.06Z"/><path class="cls-1" d="M142.84,63.06l-.07,1.64a.37.37,0,0,1-.33.35h0l-.17,1.84c0,.22-.11.4-.24.4h-.64c-.13,0-.24-.18-.24-.4L141,65.05h0a.35.35,0,0,1-.33-.35l-.08-1.64c0-.2.18-.3.4-.3h.39a.62.62,0,1,1,1-.51.64.64,0,0,1-.26.51h.37C142.66,62.76,142.84,62.86,142.84,63.06Z"/><path class="cls-1" d="M147.5,57.21l-.08,1.64a.36.36,0,0,1-.32.36h0l-.17,1.84c0,.21-.11.39-.24.39h-.64c-.13,0-.24-.18-.24-.39l-.17-1.84h0a.38.38,0,0,1-.34-.36l-.07-1.64c0-.19.17-.3.39-.3H146a.64.64,0,0,1-.26-.51.62.62,0,0,1,1.24,0,.64.64,0,0,1-.26.51h.37C147.32,56.91,147.5,57,147.5,57.21Z"/><path class="cls-1" d="M150.62,57.21l-.08,1.64a.38.38,0,0,1-.33.36h0l-.16,1.84c0,.21-.12.39-.25.39h-.64c-.13,0-.24-.18-.24-.39l-.17-1.84h0a.37.37,0,0,1-.33-.36l-.08-1.64c0-.19.18-.3.4-.3h.39a.59.59,0,0,1-.26-.51.61.61,0,0,1,.62-.62.62.62,0,0,1,.35,1.13h.38C150.44,56.91,150.62,57,150.62,57.21Z"/><path class="cls-1" d="M153.73,57.21l-.07,1.64a.38.38,0,0,1-.33.36h0l-.17,1.84c0,.21-.11.39-.24.39h-.64c-.13,0-.24-.18-.24-.39l-.17-1.84h0a.38.38,0,0,1-.34-.36l-.07-1.64c0-.19.17-.3.39-.3h.4a.62.62,0,1,1,1-.51.64.64,0,0,1-.26.51h.37C153.55,56.91,153.73,57,153.73,57.21Z"/><path class="cls-1" d="M156.85,57.21l-.08,1.64a.38.38,0,0,1-.33.36h0l-.16,1.84c0,.21-.11.39-.25.39h-.64c-.13,0-.24-.18-.24-.39L155,59.21h0a.38.38,0,0,1-.34-.36l-.08-1.64c0-.19.18-.3.4-.3h.39a.59.59,0,0,1-.26-.51.62.62,0,0,1,.62-.62.62.62,0,0,1,.62.62.64.64,0,0,1-.26.51h.37C156.67,56.91,156.85,57,156.85,57.21Z"/><path class="cls-1" d="M160,57.21l-.08,1.64a.38.38,0,0,1-.33.36h0l-.17,1.84c0,.21-.11.39-.24.39h-.64c-.13,0-.24-.18-.24-.39l-.17-1.84h0a.37.37,0,0,1-.33-.36l-.08-1.64c0-.19.18-.3.4-.3h.39a.62.62,0,1,1,1-.51.62.62,0,0,1-.26.51h.37C159.78,56.91,160,57,160,57.21Z"/><path class="cls-1" d="M100.77,57.21l-.08,1.64a.38.38,0,0,1-.33.36h0l-.17,1.84c0,.21-.11.39-.24.39h-.64c-.13,0-.24-.18-.24-.39l-.17-1.84h0a.37.37,0,0,1-.33-.36l-.08-1.64c0-.19.18-.3.4-.3h.39a.63.63,0,1,1,.71,0h.38C100.59,56.91,100.77,57,100.77,57.21Z"/><path class="cls-1" d="M103.88,57.21l-.08,1.64a.36.36,0,0,1-.32.36h0l-.17,1.84c0,.21-.11.39-.24.39h-.64c-.13,0-.24-.18-.24-.39L102,59.21h0a.38.38,0,0,1-.34-.36l-.07-1.64c0-.19.17-.3.39-.3h.39a.64.64,0,0,1-.26-.51.62.62,0,0,1,1.24,0,.64.64,0,0,1-.26.51h.37C103.7,56.91,103.88,57,103.88,57.21Z"/><path class="cls-1" d="M107,57.21l-.08,1.64a.38.38,0,0,1-.33.36h0l-.16,1.84c0,.21-.12.39-.25.39h-.64c-.13,0-.24-.18-.24-.39l-.17-1.84h0a.38.38,0,0,1-.33-.36l-.08-1.64c0-.19.18-.3.4-.3h.39a.59.59,0,0,1-.26-.51.62.62,0,0,1,.62-.62.62.62,0,0,1,.35,1.13h.38C106.82,56.91,107,57,107,57.21Z"/><path class="cls-1" d="M110.11,57.21,110,58.85a.38.38,0,0,1-.33.36h0l-.17,1.84c0,.21-.11.39-.24.39h-.64c-.13,0-.24-.18-.24-.39l-.17-1.84h0a.36.36,0,0,1-.33-.36l-.08-1.64c0-.19.17-.3.39-.3h.4a.62.62,0,1,1,1-.51.64.64,0,0,1-.26.51h.37C109.93,56.91,110.11,57,110.11,57.21Z"/><path class="cls-1" d="M113.23,57.21l-.08,1.64a.38.38,0,0,1-.33.36h0l-.16,1.84c0,.21-.11.39-.25.39h-.63c-.14,0-.25-.18-.25-.39l-.16-1.84h0a.38.38,0,0,1-.34-.36L111,57.21c0-.19.18-.3.4-.3h.39a.59.59,0,0,1-.26-.51.62.62,0,0,1,.62-.62.62.62,0,0,1,.62.62.64.64,0,0,1-.26.51h.37C113.05,56.91,113.23,57,113.23,57.21Z"/><path class="cls-1" d="M116.35,57.21l-.08,1.64a.38.38,0,0,1-.33.36h0l-.17,1.84c0,.21-.11.39-.24.39h-.64c-.13,0-.24-.18-.24-.39l-.17-1.84h0a.37.37,0,0,1-.33-.36l-.08-1.64c0-.19.18-.3.4-.3h.39a.62.62,0,0,1,.35-1.13.62.62,0,0,1,.36,1.13h.37C116.16,56.91,116.35,57,116.35,57.21Z"/><path class="cls-1" d="M119.46,57.21l-.08,1.64a.36.36,0,0,1-.33.36h0l-.16,1.84c0,.21-.11.39-.25.39H118c-.14,0-.24-.18-.24-.39l-.17-1.84h0a.38.38,0,0,1-.34-.36l-.08-1.64c0-.19.18-.3.4-.3H118a.64.64,0,0,1-.26-.51.62.62,0,0,1,1.24,0,.64.64,0,0,1-.26.51h.37C119.28,56.91,119.46,57,119.46,57.21Z"/><path class="cls-1" d="M122.58,57.21l-.08,1.64a.38.38,0,0,1-.33.36h0L122,61.05c0,.21-.11.39-.24.39h-.64c-.13,0-.24-.18-.24-.39l-.17-1.84h0a.37.37,0,0,1-.33-.36l-.08-1.64c0-.19.18-.3.4-.3h.39a.62.62,0,0,1,.35-1.13.62.62,0,0,1,.62.62.59.59,0,0,1-.26.51h.38C122.4,56.91,122.58,57,122.58,57.21Z"/><path class="cls-1" d="M125.69,57.21l-.08,1.64a.36.36,0,0,1-.32.36h0l-.17,1.84c0,.21-.11.39-.24.39h-.64c-.13,0-.24-.18-.24-.39l-.17-1.84h0a.38.38,0,0,1-.34-.36l-.07-1.64c0-.19.17-.3.39-.3h.39a.64.64,0,0,1-.26-.51.62.62,0,0,1,1.24,0,.64.64,0,0,1-.26.51h.37C125.51,56.91,125.69,57,125.69,57.21Z"/><path class="cls-1" d="M128.81,57.21l-.08,1.64a.38.38,0,0,1-.33.36h0l-.16,1.84c0,.21-.12.39-.25.39h-.64c-.13,0-.24-.18-.24-.39l-.17-1.84h0a.37.37,0,0,1-.33-.36l-.08-1.64c0-.19.18-.3.4-.3h.39a.59.59,0,0,1-.26-.51.62.62,0,0,1,.62-.62.62.62,0,0,1,.35,1.13h.38C128.63,56.91,128.81,57,128.81,57.21Z"/><path class="cls-1" d="M131.92,57.21l-.07,1.64a.38.38,0,0,1-.33.36h0l-.17,1.84c0,.21-.11.39-.24.39h-.64c-.13,0-.24-.18-.24-.39l-.17-1.84h0a.36.36,0,0,1-.33-.36l-.08-1.64c0-.19.17-.3.39-.3h.4a.62.62,0,1,1,1-.51.64.64,0,0,1-.26.51h.37C131.74,56.91,131.92,57,131.92,57.21Z"/><path class="cls-1" d="M135,57.21,135,58.85a.38.38,0,0,1-.33.36h0l-.16,1.84c0,.21-.11.39-.25.39h-.64c-.13,0-.24-.18-.24-.39l-.16-1.84h0a.38.38,0,0,1-.34-.36l-.08-1.64c0-.19.18-.3.4-.3h.39a.59.59,0,0,1-.26-.51.62.62,0,0,1,.62-.62.62.62,0,0,1,.62.62.64.64,0,0,1-.26.51h.37C134.86,56.91,135,57,135,57.21Z"/><path class="cls-1" d="M138.16,57.21l-.08,1.64a.38.38,0,0,1-.33.36h0l-.17,1.84c0,.21-.11.39-.24.39h-.64c-.13,0-.24-.18-.24-.39l-.17-1.84h0a.37.37,0,0,1-.33-.36l-.08-1.64c0-.19.18-.3.4-.3h.39a.62.62,0,0,1,.35-1.13.62.62,0,0,1,.36,1.13h.37C138,56.91,138.16,57,138.16,57.21Z"/><path class="cls-1" d="M141.27,57.21l-.08,1.64a.36.36,0,0,1-.33.36h0l-.16,1.84c0,.21-.11.39-.25.39h-.63c-.14,0-.24-.18-.24-.39l-.17-1.84h0a.38.38,0,0,1-.34-.36L139,57.21c0-.19.18-.3.4-.3h.39a.64.64,0,0,1-.26-.51.62.62,0,0,1,1.24,0,.64.64,0,0,1-.26.51h.37C141.09,56.91,141.27,57,141.27,57.21Z"/><path class="cls-1" d="M144.39,57.21l-.08,1.64a.38.38,0,0,1-.33.36h0l-.17,1.84c0,.21-.11.39-.24.39h-.64c-.13,0-.24-.18-.24-.39l-.17-1.84h0a.37.37,0,0,1-.33-.36l-.08-1.64c0-.19.18-.3.4-.3h.39a.62.62,0,0,1,.35-1.13.62.62,0,0,1,.36,1.13H144C144.21,56.91,144.39,57,144.39,57.21Z"/><path class="cls-1" d="M100.78,45.51l-.08,1.65a.36.36,0,0,1-.32.35h0l-.17,1.84c0,.21-.11.39-.24.39h-.64c-.13,0-.24-.18-.24-.39l-.17-1.84h0a.37.37,0,0,1-.34-.35l-.07-1.65c0-.19.17-.3.39-.3h.39a.62.62,0,1,1,.72,0h.37C100.6,45.21,100.78,45.32,100.78,45.51Z"/><path class="cls-1" d="M103.9,45.51l-.08,1.65a.37.37,0,0,1-.33.35h0l-.16,1.84c0,.21-.12.39-.25.39h-.64c-.13,0-.24-.18-.24-.39L102,47.51h0a.37.37,0,0,1-.33-.35l-.08-1.65c0-.19.18-.3.4-.3h.39a.56.56,0,0,1-.26-.5.61.61,0,0,1,.62-.62.62.62,0,0,1,.62.62.6.6,0,0,1-.27.5h.38C103.72,45.21,103.9,45.32,103.9,45.51Z"/><path class="cls-1" d="M107,45.51l-.07,1.65a.37.37,0,0,1-.33.35h0l-.17,1.84c0,.21-.11.39-.24.39h-.64c-.13,0-.24-.18-.24-.39l-.17-1.84h0a.35.35,0,0,1-.33-.35l-.08-1.65c0-.19.17-.3.39-.3h.4a.6.6,0,0,1-.27-.5.62.62,0,1,1,1,.5h.37C106.83,45.21,107,45.32,107,45.51Z"/><path class="cls-1" d="M110.13,45.51l-.08,1.65a.37.37,0,0,1-.33.35h0l-.16,1.84c0,.21-.11.39-.25.39h-.64c-.13,0-.24-.18-.24-.39l-.16-1.84h0a.37.37,0,0,1-.34-.35l-.08-1.65c0-.19.18-.3.4-.3h.39a.56.56,0,0,1-.26-.5.61.61,0,0,1,.62-.62.62.62,0,0,1,.36,1.12h.37C110,45.21,110.13,45.32,110.13,45.51Z"/><path class="cls-1" d="M113.25,45.51l-.08,1.65a.37.37,0,0,1-.33.35h0l-.17,1.84c0,.21-.11.39-.24.39h-.64c-.13,0-.24-.18-.24-.39l-.17-1.84h0a.36.36,0,0,1-.33-.35L111,45.51c0-.19.18-.3.4-.3h.39a.6.6,0,0,1-.27-.5.62.62,0,0,1,.62-.62.61.61,0,0,1,.62.62.59.59,0,0,1-.26.5h.37C113.06,45.21,113.25,45.32,113.25,45.51Z"/><path class="cls-1" d="M116.36,45.51l-.08,1.65a.36.36,0,0,1-.33.35h0l-.16,1.84c0,.21-.11.39-.25.39h-.63c-.14,0-.24-.18-.24-.39l-.17-1.84h0a.37.37,0,0,1-.34-.35l-.08-1.65c0-.19.18-.3.4-.3h.39a.62.62,0,1,1,.72,0H116C116.18,45.21,116.36,45.32,116.36,45.51Z"/><path class="cls-1" d="M119.48,45.51l-.08,1.65a.37.37,0,0,1-.33.35h0l-.17,1.84c0,.21-.11.39-.24.39H118c-.13,0-.24-.18-.24-.39l-.17-1.84h0a.36.36,0,0,1-.33-.35l-.08-1.65c0-.19.18-.3.4-.3H118a.6.6,0,0,1-.27-.5.62.62,0,0,1,.62-.62.61.61,0,0,1,.62.62.59.59,0,0,1-.26.5h.38C119.3,45.21,119.48,45.32,119.48,45.51Z"/><path class="cls-1" d="M122.59,45.51l-.08,1.65a.36.36,0,0,1-.32.35h0L122,49.35c0,.21-.11.39-.24.39h-.64c-.13,0-.24-.18-.24-.39l-.17-1.84h0a.37.37,0,0,1-.34-.35l-.07-1.65c0-.19.17-.3.39-.3h.39a.62.62,0,1,1,.72,0h.37C122.41,45.21,122.59,45.32,122.59,45.51Z"/><path class="cls-1" d="M125.71,45.51l-.08,1.65a.37.37,0,0,1-.33.35h0l-.16,1.84c0,.21-.12.39-.25.39h-.64c-.13,0-.24-.18-.24-.39l-.17-1.84h0a.36.36,0,0,1-.33-.35l-.08-1.65c0-.19.18-.3.4-.3h.39a.56.56,0,0,1-.26-.5.6.6,0,0,1,.62-.62.62.62,0,0,1,.62.62.6.6,0,0,1-.27.5h.38C125.53,45.21,125.71,45.32,125.71,45.51Z"/><path class="cls-1" d="M128.82,45.51l-.07,1.65a.37.37,0,0,1-.33.35h0l-.17,1.84c0,.21-.11.39-.24.39h-.64c-.13,0-.24-.18-.24-.39L127,47.51h0a.35.35,0,0,1-.33-.35l-.08-1.65c0-.19.17-.3.39-.3h.4a.6.6,0,0,1-.27-.5.62.62,0,1,1,1,.5h.37C128.64,45.21,128.82,45.32,128.82,45.51Z"/><path class="cls-1" d="M131.94,45.51l-.08,1.65a.37.37,0,0,1-.33.35h0l-.16,1.84c0,.21-.11.39-.25.39h-.64c-.13,0-.24-.18-.24-.39l-.16-1.84h0a.37.37,0,0,1-.34-.35l-.08-1.65c0-.19.18-.3.4-.3h.39a.56.56,0,0,1-.26-.5.61.61,0,0,1,.62-.62.62.62,0,0,1,.36,1.12h.37C131.76,45.21,131.94,45.32,131.94,45.51Z"/><path class="cls-1" d="M135.06,45.51,135,47.16a.37.37,0,0,1-.33.35h0l-.17,1.84c0,.21-.11.39-.24.39h-.64c-.13,0-.24-.18-.24-.39l-.17-1.84h0a.36.36,0,0,1-.33-.35l-.08-1.65c0-.19.18-.3.4-.3h.39a.6.6,0,0,1-.27-.5.62.62,0,0,1,.62-.62.61.61,0,0,1,.62.62.59.59,0,0,1-.26.5h.37C134.87,45.21,135.06,45.32,135.06,45.51Z"/><path class="cls-1" d="M138.17,45.51l-.08,1.65a.37.37,0,0,1-.33.35h0l-.16,1.84c0,.21-.11.39-.25.39h-.63c-.14,0-.24-.18-.24-.39l-.17-1.84h0a.37.37,0,0,1-.34-.35l-.08-1.65c0-.19.18-.3.4-.3h.39a.62.62,0,1,1,.72,0h.37C138,45.21,138.17,45.32,138.17,45.51Z"/><path class="cls-1" d="M141.29,45.51l-.08,1.65a.37.37,0,0,1-.33.35h0l-.17,1.84c0,.21-.11.39-.24.39h-.64c-.13,0-.24-.18-.24-.39l-.17-1.84h0a.36.36,0,0,1-.33-.35L139,45.51c0-.19.18-.3.4-.3h.39a.6.6,0,0,1-.27-.5.62.62,0,0,1,.62-.62.61.61,0,0,1,.62.62.59.59,0,0,1-.26.5h.38C141.11,45.21,141.29,45.32,141.29,45.51Z"/><path class="cls-1" d="M144.4,45.51l-.08,1.65a.36.36,0,0,1-.32.35h0l-.17,1.84c0,.21-.11.39-.24.39H143c-.13,0-.24-.18-.24-.39l-.17-1.84h0a.37.37,0,0,1-.34-.35l-.07-1.65c0-.19.17-.3.39-.3h.39a.62.62,0,1,1,.72,0H144C144.22,45.21,144.4,45.32,144.4,45.51Z"/><path class="cls-1" d="M146,51.36,145.88,53a.37.37,0,0,1-.33.35h0l-.16,1.84c0,.21-.11.39-.25.39h-.63c-.14,0-.25-.18-.25-.39l-.16-1.84h0a.37.37,0,0,1-.34-.35l-.08-1.65c0-.19.18-.3.4-.3h.39a.57.57,0,0,1-.26-.51.62.62,0,0,1,.62-.62.62.62,0,0,1,.62.62.64.64,0,0,1-.26.51h.37C145.78,51.06,146,51.17,146,51.36Z"/><path class="cls-1" d="M149.08,51.36,149,53a.37.37,0,0,1-.33.35h0l-.17,1.84c0,.21-.11.39-.24.39h-.64c-.13,0-.24-.18-.24-.39l-.17-1.84h0a.37.37,0,0,1-.33-.35l-.08-1.65c0-.19.18-.3.4-.3h.39a.6.6,0,0,1-.27-.51.62.62,0,0,1,.62-.62.62.62,0,0,1,.36,1.13h.38C148.9,51.06,149.08,51.17,149.08,51.36Z"/><path class="cls-1" d="M152.14,51.36,152.07,53a.37.37,0,0,1-.33.35h0l-.17,1.84c0,.21-.11.39-.24.39h-.64c-.13,0-.24-.18-.24-.39l-.17-1.84h0A.37.37,0,0,1,150,53l-.08-1.65c0-.19.18-.3.4-.3h.39a.6.6,0,0,1-.27-.51.62.62,0,0,1,1.24,0,.62.62,0,0,1-.26.51h.37C152,51.06,152.14,51.17,152.14,51.36Z"/><path class="cls-1" d="M163,57,163,58.66a.38.38,0,0,1-.33.36h0l-.17,1.84c0,.21-.11.39-.24.39h-.64c-.13,0-.24-.18-.24-.39L161.16,59h0a.38.38,0,0,1-.34-.36L160.75,57c0-.19.17-.3.39-.3h.4a.62.62,0,1,1,1-.51.64.64,0,0,1-.26.51h.37C162.84,56.72,163,56.83,163,57Z"/><path class="cls-1" d="M99.22,51.36,99.15,53a.37.37,0,0,1-.33.35h0l-.17,1.84c0,.21-.11.39-.24.39h-.64c-.13,0-.24-.18-.24-.39l-.17-1.84h0A.37.37,0,0,1,97,53L97,51.36c0-.19.18-.3.4-.3h.39a.6.6,0,0,1-.27-.51.62.62,0,1,1,1.24,0,.62.62,0,0,1-.26.51h.37C99,51.06,99.22,51.17,99.22,51.36Z"/><path class="cls-1" d="M102.34,51.36,102.26,53a.37.37,0,0,1-.33.35h0l-.16,1.84c0,.21-.11.39-.25.39h-.63c-.14,0-.25-.18-.25-.39l-.16-1.84h0a.37.37,0,0,1-.34-.35l-.08-1.65c0-.19.18-.3.4-.3h.39a.59.59,0,0,1-.26-.51.62.62,0,0,1,.62-.62.62.62,0,0,1,.62.62.64.64,0,0,1-.26.51h.37C102.16,51.06,102.34,51.17,102.34,51.36Z"/><path class="cls-1" d="M105.46,51.36,105.38,53a.37.37,0,0,1-.33.35h0l-.17,1.84c0,.21-.11.39-.24.39H104c-.13,0-.24-.18-.24-.39l-.17-1.84h0a.37.37,0,0,1-.33-.35l-.08-1.65c0-.19.18-.3.4-.3H104a.6.6,0,0,1-.27-.51.62.62,0,0,1,.62-.62.62.62,0,0,1,.36,1.13h.38C105.28,51.06,105.46,51.17,105.46,51.36Z"/><path class="cls-1" d="M108.57,51.36,108.49,53a.36.36,0,0,1-.32.35h0L108,55.2c0,.21-.11.39-.24.39h-.64c-.14,0-.24-.18-.24-.39l-.17-1.84h0a.37.37,0,0,1-.34-.35l-.08-1.65c0-.19.18-.3.4-.3h.39a.62.62,0,0,1-.26-.51.62.62,0,0,1,1.24,0,.64.64,0,0,1-.26.51h.37C108.39,51.06,108.57,51.17,108.57,51.36Z"/><path class="cls-1" d="M111.69,51.36,111.61,53a.37.37,0,0,1-.33.35h0l-.16,1.84c0,.21-.12.39-.25.39h-.64c-.13,0-.24-.18-.24-.39l-.17-1.84h0a.37.37,0,0,1-.33-.35l-.08-1.65c0-.19.18-.3.4-.3h.39a.6.6,0,0,1-.27-.51.63.63,0,1,1,1,.51h.38C111.51,51.06,111.69,51.17,111.69,51.36Z"/><path class="cls-1" d="M114.8,51.36,114.73,53a.37.37,0,0,1-.33.35h0l-.17,1.84c0,.21-.11.39-.24.39h-.64c-.13,0-.24-.18-.24-.39l-.17-1.84h0a.37.37,0,0,1-.34-.35l-.07-1.65c0-.19.17-.3.39-.3h.4a.6.6,0,0,1-.27-.51.62.62,0,0,1,1.24,0,.64.64,0,0,1-.26.51h.37C114.62,51.06,114.8,51.17,114.8,51.36Z"/><path class="cls-1" d="M117.92,51.36,117.84,53a.37.37,0,0,1-.33.35h0l-.16,1.84c0,.21-.11.39-.25.39h-.64c-.13,0-.24-.18-.24-.39l-.17-1.84h0a.37.37,0,0,1-.33-.35l-.08-1.65c0-.19.18-.3.4-.3h.39a.57.57,0,0,1-.26-.51.62.62,0,0,1,.62-.62.62.62,0,0,1,.35,1.13h.38C117.74,51.06,117.92,51.17,117.92,51.36Z"/><path class="cls-1" d="M121,51.36,121,53a.37.37,0,0,1-.33.35h0l-.17,1.84c0,.21-.11.39-.24.39h-.64c-.13,0-.24-.18-.24-.39l-.17-1.84h0a.37.37,0,0,1-.33-.35l-.08-1.65c0-.19.18-.3.4-.3h.39a.6.6,0,0,1-.27-.51.62.62,0,1,1,1.24,0,.62.62,0,0,1-.26.51h.37C120.85,51.06,121,51.17,121,51.36Z"/><path class="cls-1" d="M124.15,51.36,124.07,53a.37.37,0,0,1-.33.35h0l-.16,1.84c0,.21-.11.39-.25.39h-.63c-.14,0-.25-.18-.25-.39l-.16-1.84h0A.37.37,0,0,1,122,53l-.08-1.65c0-.19.18-.3.4-.3h.39a.59.59,0,0,1-.26-.51.62.62,0,0,1,.62-.62.62.62,0,0,1,.62.62.64.64,0,0,1-.26.51h.37C124,51.06,124.15,51.17,124.15,51.36Z"/><path class="cls-1" d="M127.27,51.36,127.19,53a.37.37,0,0,1-.33.35h0l-.17,1.84c0,.21-.11.39-.24.39h-.64c-.13,0-.24-.18-.24-.39l-.17-1.84h0a.37.37,0,0,1-.33-.35L125,51.36c0-.19.18-.3.4-.3h.39a.6.6,0,0,1-.27-.51.62.62,0,0,1,.62-.62.62.62,0,0,1,.36,1.13h.38C127.09,51.06,127.27,51.17,127.27,51.36Z"/><path class="cls-1" d="M130.38,51.36,130.3,53a.36.36,0,0,1-.32.35h0l-.17,1.84c0,.21-.11.39-.24.39h-.64c-.14,0-.24-.18-.24-.39l-.17-1.84h0a.37.37,0,0,1-.34-.35l-.08-1.65c0-.19.18-.3.4-.3h.39a.62.62,0,0,1-.26-.51.62.62,0,0,1,1.24,0,.64.64,0,0,1-.26.51H130C130.2,51.06,130.38,51.17,130.38,51.36Z"/><path class="cls-1" d="M133.5,51.36,133.42,53a.37.37,0,0,1-.33.35h0l-.16,1.84c0,.21-.12.39-.25.39H132c-.13,0-.24-.18-.24-.39l-.17-1.84h0a.37.37,0,0,1-.33-.35l-.08-1.65c0-.19.18-.3.4-.3H132a.6.6,0,0,1-.27-.51.63.63,0,1,1,1,.51h.38C133.32,51.06,133.5,51.17,133.5,51.36Z"/><path class="cls-1" d="M136.61,51.36,136.53,53a.36.36,0,0,1-.32.35h0L136,55.2c0,.21-.11.39-.24.39h-.64c-.13,0-.24-.18-.24-.39l-.17-1.84h0a.37.37,0,0,1-.34-.35l-.07-1.65c0-.19.17-.3.39-.3h.4a.6.6,0,0,1-.27-.51.62.62,0,0,1,1.24,0,.64.64,0,0,1-.26.51h.37C136.43,51.06,136.61,51.17,136.61,51.36Z"/><path class="cls-1" d="M139.73,51.36,139.65,53a.37.37,0,0,1-.33.35h0l-.16,1.84c0,.21-.11.39-.25.39h-.64c-.13,0-.24-.18-.24-.39l-.17-1.84h0a.37.37,0,0,1-.33-.35l-.08-1.65c0-.19.18-.3.4-.3h.39a.57.57,0,0,1-.26-.51.62.62,0,0,1,.62-.62.62.62,0,0,1,.35,1.13h.38C139.55,51.06,139.73,51.17,139.73,51.36Z"/><path class="cls-1" d="M142.84,51.36,142.77,53a.37.37,0,0,1-.33.35h0l-.17,1.84c0,.21-.11.39-.24.39h-.64c-.13,0-.24-.18-.24-.39L141,53.36h0a.37.37,0,0,1-.33-.35l-.08-1.65c0-.19.18-.3.4-.3h.39a.6.6,0,0,1-.27-.51.62.62,0,0,1,1.24,0,.64.64,0,0,1-.26.51h.37C142.66,51.06,142.84,51.17,142.84,51.36Z"/><path class="cls-1" d="M58.5,39.62l-.08,1.64a.37.37,0,0,1-.33.35h0l-.16,1.84c0,.22-.12.39-.25.39H57c-.13,0-.24-.17-.24-.39l-.17-1.84h0a.35.35,0,0,1-.33-.35l-.08-1.64c0-.2.18-.31.4-.31H57a.6.6,0,0,1-.27-.5.63.63,0,0,1,1.25,0,.6.6,0,0,1-.27.5h.38C58.32,39.31,58.5,39.42,58.5,39.62Z"/><path class="cls-1" d="M61.61,39.62l-.08,1.64a.36.36,0,0,1-.32.35h0L61,43.45c0,.22-.11.39-.24.39h-.64c-.13,0-.24-.17-.24-.39l-.17-1.84h0a.36.36,0,0,1-.34-.35l-.07-1.64c0-.2.17-.31.39-.31h.4a.6.6,0,0,1-.27-.5.62.62,0,0,1,.62-.62.62.62,0,0,1,.36,1.12h.37C61.43,39.31,61.61,39.42,61.61,39.62Z"/><path class="cls-1" d="M64.73,39.62l-.08,1.64a.37.37,0,0,1-.33.35h0l-.16,1.84c0,.22-.11.39-.25.39h-.64c-.13,0-.24-.17-.24-.39l-.17-1.84h0a.36.36,0,0,1-.33-.35l-.08-1.64c0-.2.18-.31.4-.31h.39a.56.56,0,0,1-.26-.5.62.62,0,0,1,1.24,0,.6.6,0,0,1-.27.5h.38C64.55,39.31,64.73,39.42,64.73,39.62Z"/><path class="cls-1" d="M67.84,39.62l-.07,1.64a.37.37,0,0,1-.33.35h0l-.17,1.84c0,.22-.11.39-.24.39h-.64c-.13,0-.24-.17-.24-.39L66,41.61h0a.35.35,0,0,1-.33-.35l-.08-1.64c0-.2.18-.31.4-.31h.39a.6.6,0,0,1-.27-.5.62.62,0,0,1,.62-.62.62.62,0,0,1,.36,1.12h.37C67.66,39.31,67.84,39.42,67.84,39.62Z"/><path class="cls-1" d="M71,39.62l-.08,1.64a.37.37,0,0,1-.33.35h0l-.16,1.84c0,.22-.11.39-.25.39h-.63c-.14,0-.25-.17-.25-.39l-.16-1.84h0a.36.36,0,0,1-.34-.35l-.08-1.64c0-.2.18-.31.4-.31h.39a.56.56,0,0,1-.26-.5.62.62,0,1,1,1,.5h.37C70.78,39.31,71,39.42,71,39.62Z"/><path class="cls-1" d="M74.08,39.62,74,41.26a.37.37,0,0,1-.33.35h0l-.17,1.84c0,.22-.11.39-.24.39h-.64c-.13,0-.24-.17-.24-.39l-.17-1.84h0a.35.35,0,0,1-.33-.35l-.08-1.64c0-.2.18-.31.4-.31h.39a.6.6,0,0,1-.27-.5.62.62,0,0,1,.62-.62.61.61,0,0,1,.62.62.59.59,0,0,1-.26.5h.38C73.9,39.31,74.08,39.42,74.08,39.62Z"/><path class="cls-1" d="M77.19,39.62l-.08,1.64a.36.36,0,0,1-.32.35h0l-.17,1.84c0,.22-.11.39-.24.39h-.64c-.14,0-.24-.17-.24-.39l-.17-1.84h0a.36.36,0,0,1-.34-.35l-.08-1.64c0-.2.18-.31.4-.31h.39a.61.61,0,0,1-.26-.5.62.62,0,0,1,.62-.62.62.62,0,0,1,.36,1.12h.37C77,39.31,77.19,39.42,77.19,39.62Z"/><path class="cls-1" d="M80.31,39.62l-.08,1.64a.37.37,0,0,1-.33.35h0l-.16,1.84c0,.22-.12.39-.25.39h-.64c-.13,0-.24-.17-.24-.39l-.17-1.84h0a.35.35,0,0,1-.33-.35L78,39.62c0-.2.18-.31.4-.31h.39a.6.6,0,0,1-.27-.5.63.63,0,0,1,1.25,0,.6.6,0,0,1-.27.5h.38C80.13,39.31,80.31,39.42,80.31,39.62Z"/><path class="cls-1" d="M83.42,39.62l-.08,1.64a.36.36,0,0,1-.32.35h0l-.17,1.84c0,.22-.11.39-.24.39H82c-.13,0-.24-.17-.24-.39l-.17-1.84h0a.36.36,0,0,1-.34-.35l-.07-1.64c0-.2.17-.31.39-.31h.4a.6.6,0,0,1-.27-.5.62.62,0,0,1,.62-.62.62.62,0,0,1,.36,1.12H83C83.24,39.31,83.42,39.42,83.42,39.62Z"/><path class="cls-1" d="M86.54,39.62l-.08,1.64a.37.37,0,0,1-.33.35h0L86,43.45c0,.22-.12.39-.25.39h-.64c-.13,0-.24-.17-.24-.39l-.17-1.84h0a.36.36,0,0,1-.33-.35l-.08-1.64c0-.2.18-.31.4-.31h.39a.56.56,0,0,1-.26-.5.62.62,0,0,1,1.24,0,.6.6,0,0,1-.27.5h.38C86.36,39.31,86.54,39.42,86.54,39.62Z"/><path class="cls-1" d="M89.65,39.62l-.07,1.64a.37.37,0,0,1-.33.35h0l-.17,1.84c0,.22-.11.39-.24.39H88.2c-.13,0-.24-.17-.24-.39l-.17-1.84h0a.35.35,0,0,1-.33-.35l-.08-1.64c0-.2.17-.31.39-.31h.4a.6.6,0,0,1-.27-.5.62.62,0,0,1,.62-.62.62.62,0,0,1,.36,1.12h.37C89.47,39.31,89.65,39.42,89.65,39.62Z"/><path class="cls-1" d="M92.77,39.62l-.08,1.64a.37.37,0,0,1-.33.35h0l-.16,1.84c0,.22-.11.39-.25.39h-.63c-.14,0-.25-.17-.25-.39l-.16-1.84h0a.36.36,0,0,1-.34-.35l-.08-1.64c0-.2.18-.31.4-.31h.39a.56.56,0,0,1-.26-.5.62.62,0,1,1,1,.5h.37C92.59,39.31,92.77,39.42,92.77,39.62Z"/><path class="cls-1" d="M95.89,39.62l-.08,1.64a.37.37,0,0,1-.33.35h0l-.17,1.84c0,.22-.11.39-.24.39h-.64c-.13,0-.24-.17-.24-.39L94,41.61h0a.35.35,0,0,1-.33-.35l-.08-1.64c0-.2.18-.31.4-.31h.39a.6.6,0,0,1-.27-.5.62.62,0,0,1,.62-.62.61.61,0,0,1,.62.62.59.59,0,0,1-.26.5h.38C95.71,39.31,95.89,39.42,95.89,39.62Z"/><path class="cls-1" d="M63.16,33.77l-.08,1.64a.37.37,0,0,1-.33.35h0l-.17,1.85c0,.21-.11.39-.24.39H61.7c-.13,0-.24-.18-.24-.39l-.17-1.85h0a.35.35,0,0,1-.33-.35l-.08-1.64c0-.2.18-.3.4-.3h.39A.62.62,0,0,1,62,32.34a.62.62,0,0,1,.36,1.13h.37C63,33.47,63.16,33.57,63.16,33.77Z"/><path class="cls-1" d="M66.27,33.77l-.08,1.64a.36.36,0,0,1-.33.35h0l-.16,1.85c0,.21-.11.39-.25.39h-.63c-.14,0-.24-.18-.24-.39l-.17-1.85h0a.36.36,0,0,1-.34-.35L64,33.77c0-.2.18-.3.4-.3h.39a.64.64,0,0,1-.26-.51.62.62,0,1,1,1.24,0,.64.64,0,0,1-.26.51h.37C66.09,33.47,66.27,33.57,66.27,33.77Z"/><path class="cls-1" d="M69.39,33.77l-.08,1.64a.37.37,0,0,1-.33.35h0l-.17,1.85c0,.21-.11.39-.24.39h-.64c-.13,0-.24-.18-.24-.39l-.17-1.85h0a.35.35,0,0,1-.33-.35l-.08-1.64c0-.2.18-.3.4-.3h.39a.62.62,0,0,1,.35-1.13.62.62,0,0,1,.36,1.13H69C69.21,33.47,69.39,33.57,69.39,33.77Z"/><path class="cls-1" d="M72.5,33.77l-.08,1.64a.36.36,0,0,1-.32.35h0l-.17,1.85c0,.21-.11.39-.24.39h-.64c-.13,0-.24-.18-.24-.39l-.17-1.85h0a.36.36,0,0,1-.34-.35l-.07-1.64c0-.2.17-.3.39-.3H71a.64.64,0,0,1-.26-.51A.62.62,0,0,1,72,33a.64.64,0,0,1-.26.51h.37C72.32,33.47,72.5,33.57,72.5,33.77Z"/><path class="cls-1" d="M75.62,33.77l-.08,1.64a.37.37,0,0,1-.33.35h0l-.16,1.85c0,.21-.12.39-.25.39h-.64c-.13,0-.24-.18-.24-.39l-.17-1.85h0a.35.35,0,0,1-.33-.35l-.08-1.64c0-.2.18-.3.4-.3h.39a.59.59,0,0,1-.26-.51.61.61,0,0,1,.62-.62.62.62,0,0,1,.35,1.13h.38C75.44,33.47,75.62,33.57,75.62,33.77Z"/><path class="cls-1" d="M78.73,33.77l-.07,1.64a.37.37,0,0,1-.33.35h0l-.17,1.85c0,.21-.11.39-.24.39h-.64c-.13,0-.24-.18-.24-.39l-.17-1.85h0a.34.34,0,0,1-.33-.35l-.08-1.64c0-.2.17-.3.39-.3h.4a.62.62,0,1,1,1-.51.64.64,0,0,1-.26.51h.37C78.55,33.47,78.73,33.57,78.73,33.77Z"/><path class="cls-1" d="M81.85,33.77l-.08,1.64a.37.37,0,0,1-.33.35h0l-.16,1.85c0,.21-.11.39-.25.39h-.64c-.13,0-.24-.18-.24-.39L80,35.76h0a.36.36,0,0,1-.34-.35l-.08-1.64c0-.2.18-.3.4-.3h.39A.59.59,0,0,1,80.1,33a.62.62,0,0,1,.62-.62.62.62,0,0,1,.62.62.64.64,0,0,1-.26.51h.37C81.67,33.47,81.85,33.57,81.85,33.77Z"/><path class="cls-1" d="M85,33.77l-.08,1.64a.37.37,0,0,1-.33.35h0l-.17,1.85c0,.21-.11.39-.24.39h-.64c-.13,0-.24-.18-.24-.39l-.17-1.85h0a.35.35,0,0,1-.33-.35l-.08-1.64c0-.2.18-.3.4-.3h.39a.62.62,0,1,1,1-.51.62.62,0,0,1-.26.51h.37C84.78,33.47,85,33.57,85,33.77Z"/><path class="cls-1" d="M88.08,33.77,88,35.41a.37.37,0,0,1-.33.35h0l-.16,1.85c0,.21-.11.39-.25.39h-.63c-.14,0-.24-.18-.24-.39l-.17-1.85h0a.36.36,0,0,1-.34-.35l-.08-1.64c0-.2.18-.3.4-.3h.39a.64.64,0,0,1-.26-.51.62.62,0,0,1,1.24,0,.64.64,0,0,1-.26.51h.37C87.9,33.47,88.08,33.57,88.08,33.77Z"/><path class="cls-1" d="M91.2,33.77l-.08,1.64a.37.37,0,0,1-.33.35h0l-.17,1.85c0,.21-.11.39-.24.39h-.64c-.13,0-.24-.18-.24-.39l-.17-1.85h0a.35.35,0,0,1-.33-.35l-.08-1.64c0-.2.18-.3.4-.3h.39a.62.62,0,0,1,.35-1.13.62.62,0,0,1,.36,1.13h.38C91,33.47,91.2,33.57,91.2,33.77Z"/><path class="cls-1" d="M94.31,33.77l-.08,1.64a.36.36,0,0,1-.32.35h0l-.17,1.85c0,.21-.11.39-.24.39h-.64c-.14,0-.24-.18-.24-.39l-.17-1.85h0a.36.36,0,0,1-.34-.35L92,33.77c0-.2.17-.3.39-.3h.39a.64.64,0,0,1-.26-.51.62.62,0,0,1,1.24,0,.64.64,0,0,1-.26.51h.37C94.13,33.47,94.31,33.57,94.31,33.77Z"/><path class="cls-1" d="M97.43,33.77l-.08,1.64a.37.37,0,0,1-.33.35h0l-.16,1.85c0,.21-.12.39-.25.39H96c-.13,0-.24-.18-.24-.39l-.17-1.85h0a.35.35,0,0,1-.33-.35l-.08-1.64c0-.2.18-.3.4-.3h.39a.63.63,0,1,1,.71,0H97C97.25,33.47,97.43,33.57,97.43,33.77Z"/><path class="cls-1" d="M72.52,22.07l-.08,1.65a.37.37,0,0,1-.33.35h0L72,25.91c0,.21-.12.39-.25.39h-.64c-.13,0-.24-.18-.24-.39l-.17-1.84h0a.37.37,0,0,1-.33-.35l-.08-1.65c0-.19.18-.3.4-.3H71a.56.56,0,0,1-.26-.5.61.61,0,0,1,.62-.63.62.62,0,0,1,.62.62.61.61,0,0,1-.27.51h.38C72.34,21.77,72.52,21.88,72.52,22.07Z"/><path class="cls-1" d="M75.63,22.07l-.07,1.65a.37.37,0,0,1-.33.35h0l-.17,1.84c0,.21-.11.39-.24.39h-.64c-.13,0-.24-.18-.24-.39l-.17-1.84h0a.37.37,0,0,1-.34-.35l-.07-1.65c0-.19.17-.3.39-.3h.4a.6.6,0,0,1-.27-.5.62.62,0,1,1,1,.5h.37C75.45,21.77,75.63,21.88,75.63,22.07Z"/><path class="cls-1" d="M78.75,22.07l-.08,1.65a.37.37,0,0,1-.33.35h0l-.16,1.84c0,.21-.11.39-.25.39h-.64c-.13,0-.24-.18-.24-.39l-.16-1.84h0a.37.37,0,0,1-.34-.35l-.08-1.65c0-.19.18-.3.4-.3h.39a.56.56,0,0,1-.26-.5.62.62,0,1,1,1.24,0,.63.63,0,0,1-.26.51h.37C78.57,21.77,78.75,21.88,78.75,22.07Z"/><path class="cls-1" d="M81.87,22.07l-.08,1.65a.37.37,0,0,1-.33.35h0l-.17,1.84c0,.21-.11.39-.24.39h-.64c-.13,0-.24-.18-.24-.39L80,24.07h0a.37.37,0,0,1-.33-.35l-.08-1.65c0-.19.18-.3.4-.3h.39a.6.6,0,0,1-.27-.5.62.62,0,1,1,1.24,0,.6.6,0,0,1-.26.51h.37C81.68,21.77,81.87,21.88,81.87,22.07Z"/><path class="cls-1" d="M85,22.07l-.08,1.65a.37.37,0,0,1-.33.35h0l-.16,1.84c0,.21-.11.39-.25.39h-.63c-.14,0-.24-.18-.24-.39l-.17-1.84h0a.37.37,0,0,1-.34-.35l-.08-1.65c0-.19.18-.3.4-.3h.39a.61.61,0,0,1-.26-.5.62.62,0,1,1,1,.5h.37C84.8,21.77,85,21.88,85,22.07Z"/><path class="cls-1" d="M88.1,22.07,88,23.72a.37.37,0,0,1-.33.35h0l-.17,1.84c0,.21-.11.39-.24.39h-.64c-.13,0-.24-.18-.24-.39l-.17-1.84h0a.37.37,0,0,1-.33-.35l-.08-1.65c0-.19.18-.3.4-.3h.39a.6.6,0,0,1-.27-.5.63.63,0,0,1,.62-.63.62.62,0,0,1,.62.62.6.6,0,0,1-.26.51h.38C87.92,21.77,88.1,21.88,88.1,22.07Z"/><path class="cls-1" d="M91.21,22.07l-.08,1.65a.36.36,0,0,1-.32.35h0l-.17,1.84c0,.21-.11.39-.24.39h-.64c-.14,0-.24-.18-.24-.39l-.17-1.84h0a.37.37,0,0,1-.34-.35l-.07-1.65c0-.19.17-.3.39-.3h.39a.61.61,0,0,1-.26-.5.62.62,0,1,1,1,.5h.37C91,21.77,91.21,21.88,91.21,22.07Z"/><path class="cls-1" d="M94.33,22.07l-.08,1.65a.37.37,0,0,1-.33.35h0l-.16,1.84c0,.21-.12.39-.25.39h-.64c-.13,0-.24-.18-.24-.39l-.17-1.84h0a.37.37,0,0,1-.33-.35l-.08-1.65c0-.19.18-.3.4-.3h.39a.6.6,0,0,1-.27-.5.63.63,0,0,1,1.25,0,.61.61,0,0,1-.27.51h.38C94.15,21.77,94.33,21.88,94.33,22.07Z"/><path class="cls-1" d="M97.44,22.07l-.07,1.65a.37.37,0,0,1-.33.35h0l-.17,1.84c0,.21-.11.39-.24.39H96c-.13,0-.24-.18-.24-.39l-.17-1.84h0a.37.37,0,0,1-.34-.35l-.07-1.65c0-.19.17-.3.39-.3H96a.6.6,0,0,1-.27-.5.62.62,0,1,1,1,.5H97C97.26,21.77,97.44,21.88,97.44,22.07Z"/><path class="cls-1" d="M67.84,27.92l-.07,1.64a.38.38,0,0,1-.33.36h0l-.17,1.84c0,.21-.11.39-.24.39h-.64c-.13,0-.24-.18-.24-.39L66,29.92h0a.37.37,0,0,1-.33-.36l-.08-1.64c0-.19.18-.3.4-.3h.39a.6.6,0,0,1-.27-.51.62.62,0,0,1,1.24,0,.64.64,0,0,1-.26.51h.37C67.66,27.62,67.84,27.73,67.84,27.92Z"/><path class="cls-1" d="M71,27.92l-.08,1.64a.38.38,0,0,1-.33.36h0l-.16,1.84c0,.21-.11.39-.25.39h-.63c-.14,0-.25-.18-.25-.39l-.16-1.84h0a.38.38,0,0,1-.34-.36l-.08-1.64c0-.19.18-.3.4-.3h.39a.57.57,0,0,1-.26-.51.62.62,0,0,1,.62-.62.62.62,0,0,1,.62.62.64.64,0,0,1-.26.51h.37C70.78,27.62,71,27.73,71,27.92Z"/><path class="cls-1" d="M74.08,27.92,74,29.56a.38.38,0,0,1-.33.36h0l-.17,1.84c0,.21-.11.39-.24.39h-.64c-.13,0-.24-.18-.24-.39l-.17-1.84h0a.37.37,0,0,1-.33-.36l-.08-1.64c0-.19.18-.3.4-.3h.39a.6.6,0,0,1-.27-.51.62.62,0,0,1,.62-.62.62.62,0,0,1,.36,1.13h.38C73.9,27.62,74.08,27.73,74.08,27.92Z"/><path class="cls-1" d="M77.19,27.92l-.08,1.64a.36.36,0,0,1-.32.36h0l-.17,1.84c0,.21-.11.39-.24.39h-.64c-.14,0-.24-.18-.24-.39l-.17-1.84h0a.38.38,0,0,1-.34-.36l-.08-1.64c0-.19.18-.3.4-.3h.39a.62.62,0,0,1-.26-.51.62.62,0,0,1,1.24,0,.64.64,0,0,1-.26.51h.37C77,27.62,77.19,27.73,77.19,27.92Z"/><path class="cls-1" d="M80.31,27.92l-.08,1.64a.38.38,0,0,1-.33.36h0l-.16,1.84c0,.21-.12.39-.25.39h-.64c-.13,0-.24-.18-.24-.39l-.17-1.84h0a.37.37,0,0,1-.33-.36L78,27.92c0-.19.18-.3.4-.3h.39a.6.6,0,0,1-.27-.51.63.63,0,1,1,1,.51h.38C80.13,27.62,80.31,27.73,80.31,27.92Z"/><path class="cls-1" d="M83.42,27.92l-.08,1.64a.36.36,0,0,1-.32.36h0l-.17,1.84c0,.21-.11.39-.24.39H82c-.13,0-.24-.18-.24-.39l-.17-1.84h0a.38.38,0,0,1-.34-.36l-.07-1.64c0-.19.17-.3.39-.3h.4a.6.6,0,0,1-.27-.51.62.62,0,1,1,1.24,0,.64.64,0,0,1-.26.51H83C83.24,27.62,83.42,27.73,83.42,27.92Z"/><path class="cls-1" d="M86.54,27.92l-.08,1.64a.38.38,0,0,1-.33.36h0L86,31.76c0,.21-.12.39-.25.39h-.64c-.13,0-.24-.18-.24-.39l-.17-1.84h0a.38.38,0,0,1-.33-.36l-.08-1.64c0-.19.18-.3.4-.3h.39a.57.57,0,0,1-.26-.51.62.62,0,0,1,.62-.62.62.62,0,0,1,.35,1.13h.38C86.36,27.62,86.54,27.73,86.54,27.92Z"/><path class="cls-1" d="M89.65,27.92l-.07,1.64a.38.38,0,0,1-.33.36h0l-.17,1.84c0,.21-.11.39-.24.39H88.2c-.13,0-.24-.18-.24-.39l-.17-1.84h0a.37.37,0,0,1-.33-.36l-.08-1.64c0-.19.17-.3.39-.3h.4a.6.6,0,0,1-.27-.51.62.62,0,0,1,1.24,0,.64.64,0,0,1-.26.51h.37C89.47,27.62,89.65,27.73,89.65,27.92Z"/><path class="cls-1" d="M92.77,27.92l-.08,1.64a.38.38,0,0,1-.33.36h0l-.16,1.84c0,.21-.11.39-.25.39h-.63c-.14,0-.25-.18-.25-.39l-.16-1.84h0a.38.38,0,0,1-.34-.36l-.08-1.64c0-.19.18-.3.4-.3h.39a.57.57,0,0,1-.26-.51.62.62,0,0,1,.62-.62.62.62,0,0,1,.62.62.64.64,0,0,1-.26.51h.37C92.59,27.62,92.77,27.73,92.77,27.92Z"/><path class="cls-1" d="M95.89,27.92l-.08,1.64a.38.38,0,0,1-.33.36h0l-.17,1.84c0,.21-.11.39-.24.39h-.64c-.13,0-.24-.18-.24-.39L94,29.92h0a.37.37,0,0,1-.33-.36l-.08-1.64c0-.19.18-.3.4-.3h.39a.6.6,0,0,1-.27-.51.62.62,0,0,1,.62-.62.62.62,0,0,1,.36,1.13h.38C95.71,27.62,95.89,27.73,95.89,27.92Z"/><path class="cls-1" d="M80.31,15.93l-.08,1.65a.37.37,0,0,1-.33.35h0l-.16,1.84c0,.21-.12.39-.25.39h-.64c-.13,0-.24-.18-.24-.39l-.17-1.84h0a.36.36,0,0,1-.33-.35L78,15.93c0-.19.18-.3.4-.3h.39a.6.6,0,0,1-.27-.5.63.63,0,0,1,1.25,0,.6.6,0,0,1-.27.5h.38C80.13,15.63,80.31,15.74,80.31,15.93Z"/><path class="cls-1" d="M83.42,15.93l-.08,1.65a.36.36,0,0,1-.32.35h0l-.17,1.84c0,.21-.11.39-.24.39H82c-.13,0-.24-.18-.24-.39l-.17-1.84h0a.37.37,0,0,1-.34-.35l-.07-1.65c0-.19.17-.3.39-.3h.4a.6.6,0,0,1-.27-.5.62.62,0,1,1,1,.5H83C83.24,15.63,83.42,15.74,83.42,15.93Z"/><path class="cls-1" d="M86.54,15.93l-.08,1.65a.37.37,0,0,1-.33.35h0L86,19.77c0,.21-.12.39-.25.39h-.64c-.13,0-.24-.18-.24-.39l-.17-1.84h0a.37.37,0,0,1-.33-.35l-.08-1.65c0-.19.18-.3.4-.3h.39a.56.56,0,0,1-.26-.5.61.61,0,0,1,.62-.62.62.62,0,0,1,.62.62.6.6,0,0,1-.27.5h.38C86.36,15.63,86.54,15.74,86.54,15.93Z"/><path class="cls-1" d="M89.65,15.93l-.07,1.65a.37.37,0,0,1-.33.35h0l-.17,1.84c0,.21-.11.39-.24.39H88.2c-.13,0-.24-.18-.24-.39l-.17-1.84h0a.36.36,0,0,1-.33-.35l-.08-1.65c0-.19.17-.3.39-.3h.4a.6.6,0,0,1-.27-.5.62.62,0,1,1,1,.5h.37C89.47,15.63,89.65,15.74,89.65,15.93Z"/><path class="cls-1" d="M92.77,15.93l-.08,1.65a.37.37,0,0,1-.33.35h0l-.16,1.84c0,.21-.11.39-.25.39h-.63c-.14,0-.25-.18-.25-.39l-.16-1.84h0a.37.37,0,0,1-.34-.35l-.08-1.65c0-.19.18-.3.4-.3h.39a.56.56,0,0,1-.26-.5.61.61,0,0,1,.62-.62A.62.62,0,0,1,92,15.63h.37C92.59,15.63,92.77,15.74,92.77,15.93Z"/><path class="cls-1" d="M95.89,15.93l-.08,1.65a.37.37,0,0,1-.33.35h0l-.17,1.84c0,.21-.11.39-.24.39h-.64c-.13,0-.24-.18-.24-.39L94,17.93h0a.36.36,0,0,1-.33-.35l-.08-1.65c0-.19.18-.3.4-.3h.39a.6.6,0,0,1-.27-.5.62.62,0,0,1,.62-.62.61.61,0,0,1,.62.62.59.59,0,0,1-.26.5h.38C95.71,15.63,95.89,15.74,95.89,15.93Z"/><path class="cls-1" d="M83.21,9.28a.62.62,0,0,1,.62-.62.62.62,0,0,1,.62.62.59.59,0,0,1-.26.5h.37c.22,0,.41.11.41.31l-.08,1.64a.37.37,0,0,1-.33.35h0l-.17,1.84c0,.22-.11.39-.24.39h-.64c-.13,0-.24-.17-.24-.39l-.17-1.84h0a.35.35,0,0,1-.33-.35l-.08-1.64c0-.2.18-.31.4-.31"/><path class="cls-1" d="M88.08,10.09,88,11.73a.37.37,0,0,1-.33.35h0l-.16,1.84c0,.22-.11.39-.25.39h-.63c-.14,0-.24-.17-.24-.39l-.17-1.84h0a.36.36,0,0,1-.34-.35l-.08-1.64c0-.2.18-.31.4-.31h.39a.61.61,0,0,1-.26-.5A.62.62,0,0,1,87,8.66a.62.62,0,0,1,.36,1.12h.37C87.9,9.78,88.08,9.89,88.08,10.09Z"/><path class="cls-1" d="M91.2,10.09l-.08,1.64a.37.37,0,0,1-.33.35h0l-.17,1.84c0,.22-.11.39-.24.39h-.64c-.13,0-.24-.17-.24-.39l-.17-1.84h0a.35.35,0,0,1-.33-.35l-.08-1.64c0-.2.18-.31.4-.31h.39a.6.6,0,0,1-.27-.5.62.62,0,0,1,.62-.62.61.61,0,0,1,.62.62.59.59,0,0,1-.26.5h.38C91,9.78,91.2,9.89,91.2,10.09Z"/><path class="cls-1" d="M94.31,10.09l-.08,1.64a.36.36,0,0,1-.32.35h0l-.17,1.84c0,.22-.11.39-.24.39h-.64c-.14,0-.24-.17-.24-.39l-.17-1.84h0a.36.36,0,0,1-.34-.35L92,10.09c0-.2.17-.31.39-.31h.39a.61.61,0,0,1-.26-.5.62.62,0,0,1,.62-.62.62.62,0,0,1,.36,1.12h.37C94.13,9.78,94.31,9.89,94.31,10.09Z"/><path class="cls-1" d="M97.43,10.09l-.08,1.64a.37.37,0,0,1-.33.35h0l-.16,1.84c0,.22-.12.39-.25.39H96c-.13,0-.24-.17-.24-.39l-.17-1.84h0a.35.35,0,0,1-.33-.35l-.08-1.64c0-.2.18-.31.4-.31h.39a.6.6,0,0,1-.27-.5.63.63,0,0,1,1.25,0,.6.6,0,0,1-.27.5H97C97.25,9.78,97.43,9.89,97.43,10.09Z"/><path class="cls-1" d="M92.77,4.24l-.08,1.64a.38.38,0,0,1-.33.36h0L92.2,8.08c0,.21-.11.39-.25.39h-.63c-.14,0-.25-.18-.25-.39l-.16-1.84h0a.38.38,0,0,1-.34-.36l-.08-1.64c0-.19.18-.3.4-.3h.39A.59.59,0,0,1,91,3.43a.62.62,0,0,1,.62-.62.62.62,0,0,1,.62.62.64.64,0,0,1-.26.51h.37C92.59,3.94,92.77,4.05,92.77,4.24Z"/><path class="cls-1" d="M95.89,4.24l-.08,1.64a.38.38,0,0,1-.33.36h0l-.17,1.84c0,.21-.11.39-.24.39h-.64c-.13,0-.24-.18-.24-.39L94,6.24h0a.37.37,0,0,1-.33-.36l-.08-1.64c0-.19.18-.3.4-.3h.39a.62.62,0,0,1,.35-1.13.62.62,0,0,1,.36,1.13h.38C95.71,3.94,95.89,4.05,95.89,4.24Z"/><path class="cls-1" d="M52.27,63.3l-.08,1.64a.37.37,0,0,1-.33.35h0l-.17,1.84c0,.22-.11.4-.24.4h-.64c-.13,0-.24-.18-.24-.4l-.17-1.84h0a.35.35,0,0,1-.33-.35L50,63.3c0-.2.18-.3.4-.3h.39a.62.62,0,0,1,.35-1.13A.62.62,0,0,1,51.49,63h.38C52.09,63,52.27,63.1,52.27,63.3Z"/><path class="cls-1" d="M55.38,63.3l-.08,1.64a.36.36,0,0,1-.32.35h0l-.17,1.84c0,.22-.11.4-.24.4h-.64c-.14,0-.24-.18-.24-.4l-.17-1.84h0a.36.36,0,0,1-.34-.35L53.1,63.3c0-.2.18-.3.4-.3h.39a.64.64,0,0,1-.26-.51.62.62,0,0,1,1.24,0,.64.64,0,0,1-.26.51H55C55.2,63,55.38,63.1,55.38,63.3Z"/><path class="cls-1" d="M58.5,63.3l-.08,1.64a.37.37,0,0,1-.33.35h0l-.16,1.84c0,.22-.12.4-.25.4H57c-.13,0-.24-.18-.24-.4l-.17-1.84h0a.35.35,0,0,1-.33-.35l-.08-1.64c0-.2.18-.3.4-.3H57a.63.63,0,1,1,.71,0h.38C58.32,63,58.5,63.1,58.5,63.3Z"/><path class="cls-1" d="M61.61,63.3l-.08,1.64a.36.36,0,0,1-.32.35h0L61,67.13c0,.22-.11.4-.24.4h-.64c-.13,0-.24-.18-.24-.4l-.17-1.84h0a.36.36,0,0,1-.34-.35l-.07-1.64c0-.2.17-.3.39-.3h.4a.62.62,0,1,1,1-.51.64.64,0,0,1-.26.51h.37C61.43,63,61.61,63.1,61.61,63.3Z"/><path class="cls-1" d="M64.73,63.3l-.08,1.64a.37.37,0,0,1-.33.35h0l-.16,1.84c0,.22-.11.4-.25.4h-.64c-.13,0-.24-.18-.24-.4l-.17-1.84h0a.36.36,0,0,1-.33-.35l-.08-1.64c0-.2.18-.3.4-.3h.39a.59.59,0,0,1-.26-.51.62.62,0,0,1,.62-.62A.62.62,0,0,1,64,63h.38C64.55,63,64.73,63.1,64.73,63.3Z"/><path class="cls-1" d="M67.84,63.3l-.07,1.64a.37.37,0,0,1-.33.35h0l-.17,1.84c0,.22-.11.4-.24.4h-.64c-.13,0-.24-.18-.24-.4L66,65.29h0a.35.35,0,0,1-.33-.35l-.08-1.64c0-.2.18-.3.4-.3h.39a.62.62,0,1,1,1-.51.64.64,0,0,1-.26.51h.37C67.66,63,67.84,63.1,67.84,63.3Z"/><path class="cls-1" d="M71,63.3l-.08,1.64a.37.37,0,0,1-.33.35h0l-.16,1.84c0,.22-.11.4-.25.4h-.63c-.14,0-.25-.18-.25-.4l-.16-1.84h0a.36.36,0,0,1-.34-.35l-.08-1.64c0-.2.18-.3.4-.3h.39a.59.59,0,0,1-.26-.51.62.62,0,0,1,.62-.62.62.62,0,0,1,.62.62.64.64,0,0,1-.26.51h.37C70.78,63,71,63.1,71,63.3Z"/><path class="cls-1" d="M74.08,63.3,74,64.94a.37.37,0,0,1-.33.35h0l-.17,1.84c0,.22-.11.4-.24.4h-.64c-.13,0-.24-.18-.24-.4l-.17-1.84h0a.35.35,0,0,1-.33-.35L71.8,63.3c0-.2.18-.3.4-.3h.39a.62.62,0,0,1,.35-1.13A.62.62,0,0,1,73.3,63h.38C73.9,63,74.08,63.1,74.08,63.3Z"/><path class="cls-1" d="M77.19,63.3l-.08,1.64a.36.36,0,0,1-.32.35h0l-.17,1.84c0,.22-.11.4-.24.4h-.64c-.14,0-.24-.18-.24-.4l-.17-1.84h0a.36.36,0,0,1-.34-.35l-.08-1.64c0-.2.18-.3.4-.3h.39a.64.64,0,0,1-.26-.51.62.62,0,0,1,1.24,0,.64.64,0,0,1-.26.51h.37C77,63,77.19,63.1,77.19,63.3Z"/><path class="cls-1" d="M80.31,63.3l-.08,1.64a.37.37,0,0,1-.33.35h0l-.16,1.84c0,.22-.12.4-.25.4h-.64c-.13,0-.24-.18-.24-.4l-.17-1.84h0a.35.35,0,0,1-.33-.35L78,63.3c0-.2.18-.3.4-.3h.39a.63.63,0,1,1,.71,0h.38C80.13,63,80.31,63.1,80.31,63.3Z"/><path class="cls-1" d="M83.42,63.3l-.08,1.64a.36.36,0,0,1-.32.35h0l-.17,1.84c0,.22-.11.4-.24.4H82c-.13,0-.24-.18-.24-.4l-.17-1.84h0a.36.36,0,0,1-.34-.35l-.07-1.64c0-.2.17-.3.39-.3h.4a.62.62,0,1,1,1-.51.64.64,0,0,1-.26.51H83C83.24,63,83.42,63.1,83.42,63.3Z"/><path class="cls-1" d="M86.54,63.3l-.08,1.64a.37.37,0,0,1-.33.35h0L86,67.13c0,.22-.12.4-.25.4h-.64c-.13,0-.24-.18-.24-.4l-.17-1.84h0a.36.36,0,0,1-.33-.35l-.08-1.64c0-.2.18-.3.4-.3h.39a.59.59,0,0,1-.26-.51.62.62,0,0,1,.62-.62A.62.62,0,0,1,85.76,63h.38C86.36,63,86.54,63.1,86.54,63.3Z"/><path class="cls-1" d="M89.65,63.3l-.07,1.64a.37.37,0,0,1-.33.35h0l-.17,1.84c0,.22-.11.4-.24.4H88.2c-.13,0-.24-.18-.24-.4l-.17-1.84h0a.35.35,0,0,1-.33-.35l-.08-1.64c0-.2.17-.3.39-.3h.4a.62.62,0,1,1,1-.51.64.64,0,0,1-.26.51h.37C89.47,63,89.65,63.1,89.65,63.3Z"/><path class="cls-1" d="M92.77,63.3l-.08,1.64a.37.37,0,0,1-.33.35h0l-.16,1.84c0,.22-.11.4-.25.4h-.63c-.14,0-.25-.18-.25-.4l-.16-1.84h0a.36.36,0,0,1-.34-.35l-.08-1.64c0-.2.18-.3.4-.3h.39a.59.59,0,0,1-.26-.51.62.62,0,0,1,.62-.62.62.62,0,0,1,.62.62A.64.64,0,0,1,92,63h.37C92.59,63,92.77,63.1,92.77,63.3Z"/><path class="cls-1" d="M95.89,63.3l-.08,1.64a.37.37,0,0,1-.33.35h0l-.17,1.84c0,.22-.11.4-.24.4h-.64c-.13,0-.24-.18-.24-.4L94,65.29h0a.35.35,0,0,1-.33-.35l-.08-1.64c0-.2.18-.3.4-.3h.39a.62.62,0,0,1,.35-1.13A.62.62,0,0,1,95.11,63h.38C95.71,63,95.89,63.1,95.89,63.3Z"/><path class="cls-1" d="M5.53,63.3l-.08,1.64a.37.37,0,0,1-.33.35h0L5,67.13c0,.22-.11.4-.25.4H4.08c-.14,0-.25-.18-.25-.4l-.16-1.84h0a.36.36,0,0,1-.34-.35L3.25,63.3c0-.2.18-.3.4-.3H4a.64.64,0,0,1-.26-.51.62.62,0,0,1,1.24,0,.64.64,0,0,1-.26.51h.37C5.35,63,5.53,63.1,5.53,63.3Z"/><path class="cls-1" d="M8.65,63.3l-.08,1.64a.37.37,0,0,1-.33.35h0l-.17,1.84c0,.22-.11.4-.24.4H7.19c-.13,0-.24-.18-.24-.4l-.17-1.84h0a.35.35,0,0,1-.33-.35L6.37,63.3c0-.2.18-.3.4-.3h.39a.62.62,0,0,1,.35-1.13A.62.62,0,0,1,7.87,63h.38C8.47,63,8.65,63.1,8.65,63.3Z"/><path class="cls-1" d="M11.76,63.3l-.08,1.64a.36.36,0,0,1-.32.35h0l-.17,1.84c0,.22-.11.4-.24.4h-.64c-.14,0-.24-.18-.24-.4L9.9,65.29h0a.36.36,0,0,1-.34-.35L9.49,63.3c0-.2.17-.3.39-.3h.39a.64.64,0,0,1-.26-.51.62.62,0,0,1,1.24,0A.64.64,0,0,1,11,63h.37C11.58,63,11.76,63.1,11.76,63.3Z"/><path class="cls-1" d="M14.88,63.3l-.08,1.64a.37.37,0,0,1-.33.35h0l-.16,1.84c0,.22-.12.4-.25.4h-.64c-.13,0-.24-.18-.24-.4L13,65.29h0a.35.35,0,0,1-.33-.35L12.6,63.3c0-.2.18-.3.4-.3h.39a.63.63,0,1,1,.71,0h.38C14.7,63,14.88,63.1,14.88,63.3Z"/><path class="cls-1" d="M18,63.3l-.07,1.64a.37.37,0,0,1-.33.35h0l-.17,1.84c0,.22-.11.4-.24.4h-.64c-.13,0-.24-.18-.24-.4l-.17-1.84h0a.36.36,0,0,1-.34-.35l-.07-1.64c0-.2.17-.3.39-.3h.4a.62.62,0,1,1,1-.51.64.64,0,0,1-.26.51h.37C17.81,63,18,63.1,18,63.3Z"/><path class="cls-1" d="M21.11,63.3,21,64.94a.37.37,0,0,1-.33.35h0l-.16,1.84c0,.22-.11.4-.25.4h-.64c-.13,0-.24-.18-.24-.4l-.17-1.84h0a.36.36,0,0,1-.33-.35l-.08-1.64c0-.2.18-.3.4-.3h.39a.59.59,0,0,1-.26-.51.62.62,0,0,1,.62-.62.62.62,0,0,1,.62.62.64.64,0,0,1-.26.51h.37C20.93,63,21.11,63.1,21.11,63.3Z"/><path class="cls-1" d="M24.22,63.3l-.07,1.64a.37.37,0,0,1-.33.35h0l-.17,1.84c0,.22-.11.4-.24.4h-.64c-.13,0-.24-.18-.24-.4l-.17-1.84h0a.35.35,0,0,1-.33-.35L22,63.3c0-.2.18-.3.4-.3h.39a.62.62,0,1,1,1-.51.62.62,0,0,1-.26.51h.37C24,63,24.22,63.1,24.22,63.3Z"/><path class="cls-1" d="M27.34,63.3l-.08,1.64a.37.37,0,0,1-.33.35h0l-.16,1.84c0,.22-.11.4-.25.4h-.63c-.14,0-.25-.18-.25-.4l-.16-1.84h0a.36.36,0,0,1-.34-.35l-.08-1.64c0-.2.18-.3.4-.3h.39a.62.62,0,0,1,.36-1.13.62.62,0,0,1,.62.62.64.64,0,0,1-.26.51h.37C27.16,63,27.34,63.1,27.34,63.3Z"/><path class="cls-1" d="M30.46,63.3l-.08,1.64a.37.37,0,0,1-.33.35h0l-.17,1.84c0,.22-.11.4-.24.4H29c-.13,0-.24-.18-.24-.4l-.17-1.84h0a.35.35,0,0,1-.33-.35l-.08-1.64c0-.2.18-.3.4-.3H29a.62.62,0,0,1,.35-1.13A.62.62,0,0,1,29.68,63h.38C30.28,63,30.46,63.1,30.46,63.3Z"/><path class="cls-1" d="M33.57,63.3l-.08,1.64a.36.36,0,0,1-.32.35h0L33,67.13c0,.22-.11.4-.24.4h-.64c-.14,0-.24-.18-.24-.4l-.17-1.84h0a.36.36,0,0,1-.34-.35l-.08-1.64c0-.2.18-.3.4-.3h.39a.64.64,0,0,1-.26-.51.62.62,0,0,1,1.24,0,.64.64,0,0,1-.26.51h.37C33.39,63,33.57,63.1,33.57,63.3Z"/><path class="cls-1" d="M36.69,63.3l-.08,1.64a.37.37,0,0,1-.33.35h0l-.16,1.84c0,.22-.12.4-.25.4h-.64c-.13,0-.24-.18-.24-.4l-.17-1.84h0a.35.35,0,0,1-.33-.35l-.08-1.64c0-.2.18-.3.4-.3h.39a.63.63,0,1,1,.71,0h.38C36.51,63,36.69,63.1,36.69,63.3Z"/><path class="cls-1" d="M39.8,63.3l-.07,1.64a.37.37,0,0,1-.33.35h0l-.17,1.84c0,.22-.11.4-.24.4h-.64c-.13,0-.24-.18-.24-.4l-.17-1.84h0a.36.36,0,0,1-.34-.35l-.07-1.64c0-.2.17-.3.39-.3h.4a.62.62,0,1,1,1-.51A.64.64,0,0,1,39,63h.37C39.62,63,39.8,63.1,39.8,63.3Z"/><path class="cls-1" d="M42.92,63.3l-.08,1.64a.37.37,0,0,1-.33.35h0l-.16,1.84c0,.22-.11.4-.25.4h-.64c-.13,0-.24-.18-.24-.4l-.17-1.84h0a.36.36,0,0,1-.33-.35l-.08-1.64c0-.2.18-.3.4-.3h.39a.59.59,0,0,1-.26-.51.62.62,0,0,1,.62-.62A.62.62,0,0,1,42.14,63h.38C42.74,63,42.92,63.1,42.92,63.3Z"/><path class="cls-1" d="M46,63.3,46,64.94a.37.37,0,0,1-.33.35h0l-.17,1.84c0,.22-.11.4-.24.4h-.64c-.13,0-.24-.18-.24-.4l-.17-1.84h0a.35.35,0,0,1-.33-.35l-.08-1.64c0-.2.18-.3.4-.3h.39a.62.62,0,1,1,1-.51.62.62,0,0,1-.26.51h.37C45.85,63,46,63.1,46,63.3Z"/><path class="cls-1" d="M49.15,63.3l-.08,1.64a.37.37,0,0,1-.33.35h0l-.16,1.84c0,.22-.11.4-.25.4H47.7c-.14,0-.25-.18-.25-.4l-.16-1.84h0a.36.36,0,0,1-.34-.35l-.08-1.64c0-.2.18-.3.4-.3h.39A.62.62,0,0,1,48,61.87a.62.62,0,0,1,.62.62.64.64,0,0,1-.26.51h.37C49,63,49.15,63.1,49.15,63.3Z"/><path class="cls-1" d="M53.81,57.45l-.08,1.64a.38.38,0,0,1-.33.36h0l-.16,1.84c0,.21-.12.39-.25.39h-.64c-.13,0-.24-.18-.24-.39l-.17-1.84h0a.37.37,0,0,1-.33-.36l-.08-1.64c0-.19.18-.3.4-.3h.39a.58.58,0,0,1-.26-.51.62.62,0,0,1,.62-.62A.62.62,0,0,1,53,57.15h.38C53.63,57.15,53.81,57.26,53.81,57.45Z"/><path class="cls-1" d="M56.92,57.45l-.07,1.64a.38.38,0,0,1-.33.36h0l-.17,1.84c0,.21-.11.39-.24.39h-.64c-.13,0-.24-.18-.24-.39l-.17-1.84h0a.36.36,0,0,1-.33-.36l-.08-1.64c0-.19.17-.3.39-.3h.4a.61.61,0,0,1-.27-.51.62.62,0,1,1,1.24,0,.64.64,0,0,1-.26.51h.37C56.74,57.15,56.92,57.26,56.92,57.45Z"/><path class="cls-1" d="M60,57.45,60,59.09a.38.38,0,0,1-.33.36h0l-.16,1.84c0,.21-.11.39-.25.39h-.64c-.13,0-.24-.18-.24-.39l-.16-1.84h0a.38.38,0,0,1-.34-.36l-.08-1.64c0-.19.18-.3.4-.3h.39a.58.58,0,0,1-.26-.51.62.62,0,0,1,.62-.62.62.62,0,0,1,.62.62.64.64,0,0,1-.26.51h.37C59.86,57.15,60,57.26,60,57.45Z"/><path class="cls-1" d="M63.16,57.45l-.08,1.64a.38.38,0,0,1-.33.36h0l-.17,1.84c0,.21-.11.39-.24.39H61.7c-.13,0-.24-.18-.24-.39l-.17-1.84h0a.37.37,0,0,1-.33-.36l-.08-1.64c0-.19.18-.3.4-.3h.39a.61.61,0,0,1-.27-.51A.62.62,0,0,1,62,56a.62.62,0,0,1,.36,1.13h.37C63,57.15,63.16,57.26,63.16,57.45Z"/><path class="cls-1" d="M66.27,57.45l-.08,1.64a.36.36,0,0,1-.33.36h0l-.16,1.84c0,.21-.11.39-.25.39h-.63c-.14,0-.24-.18-.24-.39l-.17-1.84h0a.38.38,0,0,1-.34-.36L64,57.45c0-.19.18-.3.4-.3h.39a.63.63,0,0,1-.26-.51.62.62,0,1,1,1.24,0,.64.64,0,0,1-.26.51h.37C66.09,57.15,66.27,57.26,66.27,57.45Z"/><path class="cls-1" d="M69.39,57.45l-.08,1.64a.38.38,0,0,1-.33.36h0l-.17,1.84c0,.21-.11.39-.24.39h-.64c-.13,0-.24-.18-.24-.39l-.17-1.84h0a.37.37,0,0,1-.33-.36l-.08-1.64c0-.19.18-.3.4-.3h.39a.61.61,0,0,1-.27-.51.62.62,0,0,1,.62-.62.62.62,0,0,1,.36,1.13H69C69.21,57.15,69.39,57.26,69.39,57.45Z"/><path class="cls-1" d="M72.5,57.45l-.08,1.64a.36.36,0,0,1-.32.36h0l-.17,1.84c0,.21-.11.39-.24.39h-.64c-.13,0-.24-.18-.24-.39l-.17-1.84h0a.38.38,0,0,1-.34-.36l-.07-1.64c0-.19.17-.3.39-.3H71a.63.63,0,0,1-.26-.51.62.62,0,0,1,1.24,0,.64.64,0,0,1-.26.51h.37C72.32,57.15,72.5,57.26,72.5,57.45Z"/><path class="cls-1" d="M75.62,57.45l-.08,1.64a.38.38,0,0,1-.33.36h0l-.16,1.84c0,.21-.12.39-.25.39h-.64c-.13,0-.24-.18-.24-.39l-.17-1.84h0a.37.37,0,0,1-.33-.36l-.08-1.64c0-.19.18-.3.4-.3h.39a.58.58,0,0,1-.26-.51.61.61,0,0,1,.62-.62.62.62,0,0,1,.35,1.13h.38C75.44,57.15,75.62,57.26,75.62,57.45Z"/><path class="cls-1" d="M78.73,57.45l-.07,1.64a.38.38,0,0,1-.33.36h0l-.17,1.84c0,.21-.11.39-.24.39h-.64c-.13,0-.24-.18-.24-.39l-.17-1.84h0a.36.36,0,0,1-.33-.36l-.08-1.64c0-.19.17-.3.39-.3h.4a.61.61,0,0,1-.27-.51.62.62,0,0,1,1.24,0,.64.64,0,0,1-.26.51h.37C78.55,57.15,78.73,57.26,78.73,57.45Z"/><path class="cls-1" d="M81.85,57.45l-.08,1.64a.38.38,0,0,1-.33.36h0l-.16,1.84c0,.21-.11.39-.25.39h-.64c-.13,0-.24-.18-.24-.39L80,59.45h0a.38.38,0,0,1-.34-.36l-.08-1.64c0-.19.18-.3.4-.3h.39a.58.58,0,0,1-.26-.51.62.62,0,0,1,.62-.62.62.62,0,0,1,.62.62.64.64,0,0,1-.26.51h.37C81.67,57.15,81.85,57.26,81.85,57.45Z"/><path class="cls-1" d="M85,57.45l-.08,1.64a.38.38,0,0,1-.33.36h0l-.17,1.84c0,.21-.11.39-.24.39h-.64c-.13,0-.24-.18-.24-.39l-.17-1.84h0a.37.37,0,0,1-.33-.36l-.08-1.64c0-.19.18-.3.4-.3h.39a.61.61,0,0,1-.27-.51.62.62,0,0,1,1.24,0,.62.62,0,0,1-.26.51h.37C84.78,57.15,85,57.26,85,57.45Z"/><path class="cls-1" d="M88.08,57.45,88,59.09a.37.37,0,0,1-.33.36h0l-.16,1.84c0,.21-.11.39-.25.39h-.63c-.14,0-.24-.18-.24-.39l-.17-1.84h0a.38.38,0,0,1-.34-.36l-.08-1.64c0-.19.18-.3.4-.3h.39a.63.63,0,0,1-.26-.51.62.62,0,1,1,1.24,0,.64.64,0,0,1-.26.51h.37C87.9,57.15,88.08,57.26,88.08,57.45Z"/><path class="cls-1" d="M91.2,57.45l-.08,1.64a.38.38,0,0,1-.33.36h0l-.17,1.84c0,.21-.11.39-.24.39h-.64c-.13,0-.24-.18-.24-.39l-.17-1.84h0a.37.37,0,0,1-.33-.36l-.08-1.64c0-.19.18-.3.4-.3h.39a.61.61,0,0,1-.27-.51.62.62,0,0,1,.62-.62.62.62,0,0,1,.36,1.13h.38C91,57.15,91.2,57.26,91.2,57.45Z"/><path class="cls-1" d="M94.31,57.45l-.08,1.64a.36.36,0,0,1-.32.36h0l-.17,1.84c0,.21-.11.39-.24.39h-.64c-.14,0-.24-.18-.24-.39l-.17-1.84h0a.38.38,0,0,1-.34-.36L92,57.45c0-.19.17-.3.39-.3h.39a.63.63,0,0,1-.26-.51.62.62,0,1,1,1.24,0,.64.64,0,0,1-.26.51h.37C94.13,57.15,94.31,57.26,94.31,57.45Z"/><path class="cls-1" d="M97.43,57.45l-.08,1.64a.38.38,0,0,1-.33.36h0l-.16,1.84c0,.21-.12.39-.25.39H96c-.13,0-.24-.18-.24-.39l-.17-1.84h0a.37.37,0,0,1-.33-.36l-.08-1.64c0-.19.18-.3.4-.3h.39a.61.61,0,0,1-.27-.51.63.63,0,1,1,1,.51H97C97.25,57.15,97.43,57.26,97.43,57.45Z"/><path class="cls-1" d="M41.35,57.45l-.08,1.64a.38.38,0,0,1-.33.36h0l-.17,1.84c0,.21-.11.39-.24.39h-.64c-.13,0-.24-.18-.24-.39l-.17-1.84h0a.37.37,0,0,1-.33-.36l-.08-1.64c0-.19.18-.3.4-.3h.39a.61.61,0,0,1-.27-.51.62.62,0,0,1,.62-.62.62.62,0,0,1,.36,1.13h.37C41.16,57.15,41.35,57.26,41.35,57.45Z"/><path class="cls-1" d="M38.24,57.45l-.07,1.64a.38.38,0,0,1-.33.36h0l-.17,1.84c0,.21-.11.39-.24.39h-.64c-.13,0-.24-.18-.24-.39l-.17-1.84h0a.36.36,0,0,1-.33-.36L36,57.45c0-.19.17-.3.39-.3h.4a.61.61,0,0,1-.27-.51.62.62,0,0,1,1.24,0,.64.64,0,0,1-.26.51h.37C38.06,57.15,38.24,57.26,38.24,57.45Z"/><path class="cls-1" d="M35.16,57.45l-.08,1.64a.38.38,0,0,1-.33.36h0l-.16,1.84c0,.21-.12.39-.25.39H33.7c-.13,0-.24-.18-.24-.39l-.17-1.84h0a.38.38,0,0,1-.33-.36l-.08-1.64c0-.19.18-.3.4-.3h.39a.58.58,0,0,1-.26-.51A.62.62,0,0,1,34,56a.62.62,0,0,1,.35,1.13h.38C35,57.15,35.16,57.26,35.16,57.45Z"/><path class="cls-1" d="M44.46,57.45l-.08,1.64a.36.36,0,0,1-.33.36h0l-.16,1.84c0,.21-.11.39-.25.39H43c-.14,0-.24-.18-.24-.39l-.17-1.84h0a.38.38,0,0,1-.34-.36l-.08-1.64c0-.19.18-.3.4-.3H43a.63.63,0,0,1-.26-.51.62.62,0,1,1,1.24,0,.64.64,0,0,1-.26.51h.37C44.28,57.15,44.46,57.26,44.46,57.45Z"/><path class="cls-1" d="M47.58,57.45l-.08,1.64a.38.38,0,0,1-.33.36h0L47,61.29c0,.21-.11.39-.24.39h-.64c-.13,0-.24-.18-.24-.39l-.17-1.84h0a.37.37,0,0,1-.33-.36l-.08-1.64c0-.19.18-.3.4-.3h.39a.61.61,0,0,1-.27-.51.62.62,0,0,1,.62-.62.62.62,0,0,1,.62.62.59.59,0,0,1-.26.51h.38C47.4,57.15,47.58,57.26,47.58,57.45Z"/><path class="cls-1" d="M50.69,57.45l-.08,1.64a.36.36,0,0,1-.32.36h0l-.17,1.84c0,.21-.11.39-.24.39h-.64c-.13,0-.24-.18-.24-.39l-.17-1.84h0a.38.38,0,0,1-.34-.36l-.07-1.64c0-.19.17-.3.39-.3h.39a.63.63,0,0,1-.26-.51.62.62,0,1,1,1.24,0,.64.64,0,0,1-.26.51h.37C50.51,57.15,50.69,57.26,50.69,57.45Z"/><path class="cls-1" d="M53.82,45.75l-.07,1.65a.37.37,0,0,1-.33.35h0l-.17,1.84c0,.22-.11.39-.24.39h-.64c-.13,0-.24-.17-.24-.39L52,47.75h0a.35.35,0,0,1-.33-.35l-.08-1.65c0-.19.17-.3.39-.3h.4a.6.6,0,0,1-.27-.5.62.62,0,1,1,1,.5h.37C53.64,45.45,53.82,45.56,53.82,45.75Z"/><path class="cls-1" d="M56.94,45.75l-.08,1.65a.37.37,0,0,1-.33.35h0l-.16,1.84c0,.22-.11.39-.25.39h-.64c-.13,0-.24-.17-.24-.39l-.16-1.84h0a.37.37,0,0,1-.34-.35l-.08-1.65c0-.19.18-.3.4-.3h.39a.56.56,0,0,1-.26-.5.61.61,0,0,1,.62-.62.62.62,0,0,1,.36,1.12h.37C56.76,45.45,56.94,45.56,56.94,45.75Z"/><path class="cls-1" d="M60.06,45.75,60,47.4a.37.37,0,0,1-.33.35h0l-.17,1.84c0,.22-.11.39-.24.39H58.6c-.13,0-.24-.17-.24-.39l-.17-1.84h0a.36.36,0,0,1-.33-.35l-.08-1.65c0-.19.18-.3.4-.3h.39a.6.6,0,0,1-.27-.5.62.62,0,0,1,.62-.62.61.61,0,0,1,.62.62.59.59,0,0,1-.26.5h.37C59.87,45.45,60.06,45.56,60.06,45.75Z"/><path class="cls-1" d="M63.17,45.75l-.08,1.65a.36.36,0,0,1-.33.35h0l-.16,1.84c0,.22-.11.39-.25.39h-.63c-.14,0-.24-.17-.24-.39l-.17-1.84h0A.37.37,0,0,1,61,47.4l-.08-1.65c0-.19.18-.3.4-.3h.39a.62.62,0,1,1,.72,0h.37C63,45.45,63.17,45.56,63.17,45.75Z"/><path class="cls-1" d="M66.29,45.75l-.08,1.65a.37.37,0,0,1-.33.35h0l-.17,1.84c0,.22-.11.39-.24.39h-.64c-.13,0-.24-.17-.24-.39l-.17-1.84h0a.36.36,0,0,1-.33-.35L64,45.75c0-.19.18-.3.4-.3h.39a.6.6,0,0,1-.27-.5.62.62,0,0,1,.62-.62.61.61,0,0,1,.62.62.59.59,0,0,1-.26.5h.38C66.11,45.45,66.29,45.56,66.29,45.75Z"/><path class="cls-1" d="M69.4,45.75l-.08,1.65a.36.36,0,0,1-.32.35h0l-.17,1.84c0,.22-.11.39-.24.39H68c-.13,0-.24-.17-.24-.39l-.17-1.84h0a.37.37,0,0,1-.34-.35l-.07-1.65c0-.19.17-.3.39-.3h.39a.62.62,0,1,1,.72,0H69C69.22,45.45,69.4,45.56,69.4,45.75Z"/><path class="cls-1" d="M72.52,45.75l-.08,1.65a.37.37,0,0,1-.33.35h0L72,49.59c0,.22-.12.39-.25.39h-.64c-.13,0-.24-.17-.24-.39l-.17-1.84h0a.36.36,0,0,1-.33-.35l-.08-1.65c0-.19.18-.3.4-.3H71a.56.56,0,0,1-.26-.5.6.6,0,0,1,.62-.62A.62.62,0,0,1,72,45a.6.6,0,0,1-.27.5h.38C72.34,45.45,72.52,45.56,72.52,45.75Z"/><path class="cls-1" d="M75.63,45.75l-.07,1.65a.37.37,0,0,1-.33.35h0l-.17,1.84c0,.22-.11.39-.24.39h-.64c-.13,0-.24-.17-.24-.39l-.17-1.84h0a.37.37,0,0,1-.34-.35l-.07-1.65c0-.19.17-.3.39-.3h.4a.6.6,0,0,1-.27-.5.62.62,0,1,1,1,.5h.37C75.45,45.45,75.63,45.56,75.63,45.75Z"/><path class="cls-1" d="M78.75,45.75l-.08,1.65a.37.37,0,0,1-.33.35h0l-.16,1.84c0,.22-.11.39-.25.39h-.64c-.13,0-.24-.17-.24-.39l-.16-1.84h0a.37.37,0,0,1-.34-.35l-.08-1.65c0-.19.18-.3.4-.3h.39A.56.56,0,0,1,77,45a.61.61,0,0,1,.62-.62A.62.62,0,0,1,78,45.45h.37C78.57,45.45,78.75,45.56,78.75,45.75Z"/><path class="cls-1" d="M81.87,45.75l-.08,1.65a.37.37,0,0,1-.33.35h0l-.17,1.84c0,.22-.11.39-.24.39h-.64c-.13,0-.24-.17-.24-.39L80,47.75h0a.36.36,0,0,1-.33-.35l-.08-1.65c0-.19.18-.3.4-.3h.39a.6.6,0,0,1-.27-.5.62.62,0,0,1,1.24,0,.59.59,0,0,1-.26.5h.37C81.68,45.45,81.87,45.56,81.87,45.75Z"/><path class="cls-1" d="M85,45.75,84.9,47.4a.37.37,0,0,1-.33.35h0l-.16,1.84c0,.22-.11.39-.25.39h-.63c-.14,0-.24-.17-.24-.39l-.17-1.84h0a.37.37,0,0,1-.34-.35l-.08-1.65c0-.19.18-.3.4-.3h.39a.62.62,0,1,1,.72,0h.37C84.8,45.45,85,45.56,85,45.75Z"/><path class="cls-1" d="M88.1,45.75,88,47.4a.37.37,0,0,1-.33.35h0l-.17,1.84c0,.22-.11.39-.24.39h-.64c-.13,0-.24-.17-.24-.39l-.17-1.84h0a.36.36,0,0,1-.33-.35l-.08-1.65c0-.19.18-.3.4-.3h.39a.6.6,0,0,1-.27-.5.62.62,0,0,1,.62-.62.61.61,0,0,1,.62.62.59.59,0,0,1-.26.5h.38C87.92,45.45,88.1,45.56,88.1,45.75Z"/><path class="cls-1" d="M91.21,45.75l-.08,1.65a.36.36,0,0,1-.32.35h0l-.17,1.84c0,.22-.11.39-.24.39h-.64c-.14,0-.24-.17-.24-.39l-.17-1.84h0A.37.37,0,0,1,89,47.4l-.07-1.65c0-.19.17-.3.39-.3h.39a.62.62,0,1,1,.72,0h.37C91,45.45,91.21,45.56,91.21,45.75Z"/><path class="cls-1" d="M94.33,45.75l-.08,1.65a.37.37,0,0,1-.33.35h0l-.16,1.84c0,.22-.12.39-.25.39h-.64c-.13,0-.24-.17-.24-.39l-.17-1.84h0a.36.36,0,0,1-.33-.35l-.08-1.65c0-.19.18-.3.4-.3h.39a.6.6,0,0,1-.27-.5.63.63,0,0,1,1.25,0,.6.6,0,0,1-.27.5h.38C94.15,45.45,94.33,45.56,94.33,45.75Z"/><path class="cls-1" d="M97.44,45.75l-.07,1.65a.37.37,0,0,1-.33.35h0l-.17,1.84c0,.22-.11.39-.24.39H96c-.13,0-.24-.17-.24-.39l-.17-1.84h0a.37.37,0,0,1-.34-.35l-.07-1.65c0-.19.17-.3.39-.3H96a.6.6,0,0,1-.27-.5.62.62,0,1,1,1,.5H97C97.26,45.45,97.44,45.56,97.44,45.75Z"/><path class="cls-1" d="M52.27,51.6l-.08,1.65a.37.37,0,0,1-.33.35h0l-.17,1.84c0,.21-.11.39-.24.39h-.64c-.13,0-.24-.18-.24-.39L50.4,53.6h0a.37.37,0,0,1-.33-.35L50,51.6c0-.19.18-.3.4-.3h.39a.6.6,0,0,1-.27-.51.62.62,0,0,1,.62-.62.62.62,0,0,1,.62.62.6.6,0,0,1-.26.51h.38C52.09,51.3,52.27,51.41,52.27,51.6Z"/><path class="cls-1" d="M55.38,51.6l-.08,1.65a.36.36,0,0,1-.32.35h0l-.17,1.84c0,.21-.11.39-.24.39h-.64c-.14,0-.24-.18-.24-.39l-.17-1.84h0a.37.37,0,0,1-.34-.35L53.1,51.6c0-.19.18-.3.4-.3h.39a.62.62,0,0,1-.26-.51.62.62,0,0,1,1.24,0,.63.63,0,0,1-.26.51H55C55.2,51.3,55.38,51.41,55.38,51.6Z"/><path class="cls-1" d="M58.5,51.6l-.08,1.65a.37.37,0,0,1-.33.35h0l-.16,1.84c0,.21-.12.39-.25.39H57c-.13,0-.24-.18-.24-.39l-.17-1.84h0a.37.37,0,0,1-.33-.35l-.08-1.65c0-.19.18-.3.4-.3H57a.6.6,0,0,1-.27-.51.63.63,0,0,1,1.25,0,.61.61,0,0,1-.27.51h.38C58.32,51.3,58.5,51.41,58.5,51.6Z"/><path class="cls-1" d="M61.61,51.6l-.08,1.65a.36.36,0,0,1-.32.35h0L61,55.44c0,.21-.11.39-.24.39h-.64c-.13,0-.24-.18-.24-.39l-.17-1.84h0a.37.37,0,0,1-.34-.35l-.07-1.65c0-.19.17-.3.39-.3h.4a.6.6,0,0,1-.27-.51.62.62,0,1,1,1.24,0,.63.63,0,0,1-.26.51h.37C61.43,51.3,61.61,51.41,61.61,51.6Z"/><path class="cls-1" d="M64.73,51.6l-.08,1.65a.37.37,0,0,1-.33.35h0l-.16,1.84c0,.21-.11.39-.25.39h-.64c-.13,0-.24-.18-.24-.39l-.17-1.84h0a.37.37,0,0,1-.33-.35l-.08-1.65c0-.19.18-.3.4-.3h.39a.57.57,0,0,1-.26-.51.62.62,0,0,1,.62-.62.62.62,0,0,1,.62.62.61.61,0,0,1-.27.51h.38C64.55,51.3,64.73,51.41,64.73,51.6Z"/><path class="cls-1" d="M67.84,51.6l-.07,1.65a.37.37,0,0,1-.33.35h0l-.17,1.84c0,.21-.11.39-.24.39h-.64c-.13,0-.24-.18-.24-.39L66,53.6h0a.37.37,0,0,1-.33-.35l-.08-1.65c0-.19.18-.3.4-.3h.39a.6.6,0,0,1-.27-.51.62.62,0,1,1,1.24,0,.63.63,0,0,1-.26.51h.37C67.66,51.3,67.84,51.41,67.84,51.6Z"/><path class="cls-1" d="M71,51.6l-.08,1.65a.37.37,0,0,1-.33.35h0l-.16,1.84c0,.21-.11.39-.25.39h-.63c-.14,0-.25-.18-.25-.39L69.1,53.6h0a.37.37,0,0,1-.34-.35l-.08-1.65c0-.19.18-.3.4-.3h.39a.57.57,0,0,1-.26-.51.62.62,0,0,1,.62-.62.62.62,0,0,1,.62.62.63.63,0,0,1-.26.51h.37C70.78,51.3,71,51.41,71,51.6Z"/><path class="cls-1" d="M74.08,51.6,74,53.25a.37.37,0,0,1-.33.35h0l-.17,1.84c0,.21-.11.39-.24.39h-.64c-.13,0-.24-.18-.24-.39l-.17-1.84h0a.37.37,0,0,1-.33-.35L71.8,51.6c0-.19.18-.3.4-.3h.39a.6.6,0,0,1-.27-.51.62.62,0,0,1,.62-.62.62.62,0,0,1,.62.62.6.6,0,0,1-.26.51h.38C73.9,51.3,74.08,51.41,74.08,51.6Z"/><path class="cls-1" d="M77.19,51.6l-.08,1.65a.36.36,0,0,1-.32.35h0l-.17,1.84c0,.21-.11.39-.24.39h-.64c-.14,0-.24-.18-.24-.39l-.17-1.84h0a.37.37,0,0,1-.34-.35l-.08-1.65c0-.19.18-.3.4-.3h.39a.62.62,0,0,1-.26-.51.62.62,0,1,1,1.24,0,.63.63,0,0,1-.26.51h.37C77,51.3,77.19,51.41,77.19,51.6Z"/><path class="cls-1" d="M80.31,51.6l-.08,1.65a.37.37,0,0,1-.33.35h0l-.16,1.84c0,.21-.12.39-.25.39h-.64c-.13,0-.24-.18-.24-.39l-.17-1.84h0a.37.37,0,0,1-.33-.35L78,51.6c0-.19.18-.3.4-.3h.39a.6.6,0,0,1-.27-.51.63.63,0,0,1,1.25,0,.61.61,0,0,1-.27.51h.38C80.13,51.3,80.31,51.41,80.31,51.6Z"/><path class="cls-1" d="M83.42,51.6l-.08,1.65a.36.36,0,0,1-.32.35h0l-.17,1.84c0,.21-.11.39-.24.39H82c-.13,0-.24-.18-.24-.39l-.17-1.84h0a.37.37,0,0,1-.34-.35l-.07-1.65c0-.19.17-.3.39-.3h.4a.6.6,0,0,1-.27-.51.62.62,0,1,1,1.24,0,.63.63,0,0,1-.26.51H83C83.24,51.3,83.42,51.41,83.42,51.6Z"/><path class="cls-1" d="M86.54,51.6l-.08,1.65a.37.37,0,0,1-.33.35h0L86,55.44c0,.21-.12.39-.25.39h-.64c-.13,0-.24-.18-.24-.39l-.17-1.84h0a.37.37,0,0,1-.33-.35l-.08-1.65c0-.19.18-.3.4-.3h.39a.57.57,0,0,1-.26-.51.62.62,0,0,1,.62-.62.62.62,0,0,1,.62.62.61.61,0,0,1-.27.51h.38C86.36,51.3,86.54,51.41,86.54,51.6Z"/><path class="cls-1" d="M89.65,51.6l-.07,1.65a.37.37,0,0,1-.33.35h0l-.17,1.84c0,.21-.11.39-.24.39H88.2c-.13,0-.24-.18-.24-.39l-.17-1.84h0a.37.37,0,0,1-.33-.35l-.08-1.65c0-.19.17-.3.39-.3h.4a.6.6,0,0,1-.27-.51.62.62,0,0,1,1.24,0,.63.63,0,0,1-.26.51h.37C89.47,51.3,89.65,51.41,89.65,51.6Z"/><path class="cls-1" d="M92.77,51.6l-.08,1.65a.37.37,0,0,1-.33.35h0l-.16,1.84c0,.21-.11.39-.25.39h-.63c-.14,0-.25-.18-.25-.39l-.16-1.84h0a.37.37,0,0,1-.34-.35l-.08-1.65c0-.19.18-.3.4-.3h.39a.57.57,0,0,1-.26-.51.62.62,0,0,1,.62-.62.62.62,0,0,1,.62.62.63.63,0,0,1-.26.51h.37C92.59,51.3,92.77,51.41,92.77,51.6Z"/><path class="cls-1" d="M95.89,51.6l-.08,1.65a.37.37,0,0,1-.33.35h0l-.17,1.84c0,.21-.11.39-.24.39h-.64c-.13,0-.24-.18-.24-.39L94,53.6h0a.37.37,0,0,1-.33-.35l-.08-1.65c0-.19.18-.3.4-.3h.39a.6.6,0,0,1-.27-.51.62.62,0,0,1,.62-.62.62.62,0,0,1,.62.62.6.6,0,0,1-.26.51h.38C95.71,51.3,95.89,51.41,95.89,51.6Z"/><path class="cls-1" d="M49.15,51.6l-.08,1.65a.37.37,0,0,1-.33.35h0l-.16,1.84c0,.21-.11.39-.25.39H47.7c-.14,0-.25-.18-.25-.39l-.16-1.84h0a.37.37,0,0,1-.34-.35l-.08-1.65c0-.19.18-.3.4-.3h.39a.59.59,0,0,1-.26-.51.62.62,0,0,1,.62-.62.62.62,0,0,1,.62.62.63.63,0,0,1-.26.51h.37C49,51.3,49.15,51.41,49.15,51.6Z"/><path class="cls-1" d="M45.94,51.6l-.08,1.65a.37.37,0,0,1-.33.35h0l-.16,1.84c0,.21-.12.39-.25.39h-.64c-.13,0-.24-.18-.24-.39l-.17-1.84h0a.37.37,0,0,1-.33-.35l-.08-1.65c0-.19.18-.3.4-.3h.39a.57.57,0,0,1-.26-.51.62.62,0,0,1,.62-.62.62.62,0,0,1,.62.62.61.61,0,0,1-.27.51h.38C45.76,51.3,45.94,51.41,45.94,51.6Z"/></g></svg>