<svg xmlns="http://www.w3.org/2000/svg" viewBox="0 0 193.28 67.59"><defs><style>.cls-1{fill:#e0dfdf;opacity:0.5;isolation:isolate;}</style></defs><g id="Layer_1" data-name="Layer 1"><path class="cls-1" d="M-.17,67.59v-.71l2.32-.16,2-.2L6.5,66.3l2-.27,2.32-.31,2-.36,2.32-.43,2-.48,2-.56,2.32-.64,2-.72,2.32-.81,2-.92,2.32-1,2-1.13,2.32-1.26,2-1.38L39,54.49l2-1.64,2.32-1.78,2-1.9,2.32-2,2-2.15L52,42.72l2-2.38,2.32-2.46,2-2.55,2.32-2.61,2-2.66,2.32-2.68,2-2.68,2.32-2.65,2-2.6,2-2.53,2.32-2.42,2-2.29,2.32-2.13,2-1.95,2.33-1.75,2-1.51L88.88,3.6l2-1,2.32-.73,2-.44,2.32-.15,2,.15,2.32.44,2,.73,2.32,1,2,1.27,2.32,1.51,2,1.75L115,10.08l2,2.13,2.32,2.29,2,2.42,2,2.53,2.32,2.6,2,2.65,2.32,2.68,2,2.68,2.32,2.66,2,2.61,2.32,2.55,2,2.46,2.32,2.38,2,2.27,2.32,2.15,2,2,2.32,1.9,2,1.78,2.32,1.64,2,1.51,2.32,1.38,2,1.26,2.32,1.13,2,1,2.32.92,2,.81,2.32.72,2,.64,2,.56,2.32.48,2,.43,2.32.36,2,.31,2.32.27,2,.22,2.32.2v.87Z"/></g></svg>