<svg xmlns="http://www.w3.org/2000/svg" viewBox="0 0 10 20"><defs><style>.cls-1{fill:#d8d9d8;}.cls-2{fill:#c09280;}.cls-3{fill:#fff;}.cls-4{fill:#82ab65;}.cls-5{fill:#231f20;}.cls-6,.cls-7{fill:none;stroke:#8b8c8b;stroke-miterlimit:10;}.cls-6{stroke-width:0.25px;}.cls-7{stroke-width:0.5px;}</style></defs><g id="Layer_1" data-name="Layer 1"><path class="cls-1" d="M7.24,4.39l.15.19A.34.34,0,0,0,7.24,4.39Z"/><path class="cls-1" d="M9.83,8.51a.72.72,0,0,1-1,0L7.47,7.06C7.29,9.25,6.77,12,6.77,12V12l-.55,6.07c0,.71-.37,1.3-.81,1.3H3.29c-.44,0-.8-.59-.8-1.3L1.93,12V12A1.22,1.22,0,0,1,.82,10.83L.56,5.37c0-.65.59-1,1.32-1H3.17A2.06,2.06,0,1,1,6.42,2.69a.49.49,0,0,1,0,.12,1,1,0,0,1-.23-.06,1,1,0,0,0,.07.68l0,0a2,2,0,0,1-.71.92H7.19l0,0h0l.15.19L7.73,5,7.22,3.57a2.15,2.15,0,0,1-1-.12,1.93,1.93,0,0,0,.14-.64,1.72,1.72,0,0,0,1,0c.21.16.42.35.58.49l.34-.12L10,7.9h0A.49.49,0,0,1,9.83,8.51Z"/><path class="cls-1" d="M6.41,2.81a1.93,1.93,0,0,1-.14.64l0,0a1,1,0,0,1-.07-.68A1,1,0,0,0,6.41,2.81Z"/><path class="cls-1" d="M6.41,2.81a1.93,1.93,0,0,1-.14.64l0,0a1,1,0,0,1-.07-.68A1,1,0,0,0,6.41,2.81Z"/><path class="cls-2" d="M7.25,1.87A1.43,1.43,0,1,1,5.83.45,1.42,1.42,0,0,1,7.25,1.87"/><path class="cls-3" d="M7.25,2c0,.49-.64.89-1.42.89S4.4,2.45,4.4,2,5,1.07,5.83,1.07s1.42.39,1.42.89"/><path class="cls-4" d="M5.25,1.14A1,1,0,0,0,4.83,2a1,1,0,0,0,.42.81,2.08,2.08,0,0,0,.58.08,2.07,2.07,0,0,0,.57-.08A1,1,0,0,0,6.83,2a1,1,0,0,0-.43-.82,2.07,2.07,0,0,0-.57-.07,2.1,2.1,0,0,0-.58.07"/><path class="cls-5" d="M6.28,2a.48.48,0,1,1-.48-.48A.47.47,0,0,1,6.28,2"/><path class="cls-3" d="M6.53,1.61a.2.2,0,0,1-.2.2.19.19,0,0,1-.19-.2.18.18,0,0,1,.19-.19.19.19,0,0,1,.2.19"/><path class="cls-3" d="M6.06,1.42a.13.13,0,0,1-.26,0,.13.13,0,0,1,.26,0"/><path class="cls-6" d="M7.2,1.87A1.4,1.4,0,1,1,5.8.47,1.39,1.39,0,0,1,7.2,1.87Z"/><line class="cls-7" x1="7.57" y1="4.73" x2="6.61" y2="2.98"/></g></svg>