<?xml version="1.0" encoding="utf-8"?>
<!-- Generator: Adobe Illustrator 24.2.3, SVG Export Plug-In . SVG Version: 6.00 Build 0)  -->
<svg version="1.1" id="Layer_1" xmlns="http://www.w3.org/2000/svg" xmlns:xlink="http://www.w3.org/1999/xlink" x="0px" y="0px"
	 viewBox="0 0 18 40" style="enable-background:new 0 0 18 40;" xml:space="preserve">
<style type="text/css">
	.st0{fill:#D8D9D8;}
</style>
<g id="Layer_1_1_">
	<path class="st0" d="M16.9,10.3l-0.5,11.4c-0.1,1.3-1,2.3-2.3,2.4l0,0l-1.1,12.7c0,1.5-0.8,2.7-1.7,2.7H6.8c-0.9,0-1.7-1.2-1.7-2.7
		L4,24.1l0,0C2.7,24,1.7,23,1.7,21.7L1.1,10.3c0-1.3,1.2-2.1,2.7-2.1h2.7C5.4,7.5,4.7,6.2,4.8,4.8c0-2.4,1.9-4.3,4.3-4.3
		c2.4,0,4.3,1.9,4.3,4.3c0,1.4-0.7,2.7-1.8,3.5h2.6C15.6,8.2,16.9,9,16.9,10.3z"/>
</g>
</svg>
