<svg xmlns="http://www.w3.org/2000/svg" viewBox="0 0 16.87 4.06"><defs><style>.cls-1{fill:#b62025;}.cls-2{fill:#b72125;}.cls-3{fill:#b92126;}.cls-4{fill:#ba2227;}.cls-5{fill:#bb2327;}.cls-6{fill:#bc2428;}.cls-7{fill:#bd2429;}.cls-8{fill:#be252a;}.cls-9{fill:#c0262b;}.cls-10{fill:#c1272c;}.cls-11{fill:#c2282d;}.cls-12{fill:#c3282e;}.cls-13{fill:#c4292e;}.cls-14{fill:#c52a2f;}.cls-15{fill:#c72b30;}.cls-16{fill:#c82c31;}.cls-17{fill:#c92c32;}.cls-18{fill:#ca2d33;}.cls-19{fill:#cb2e34;}.cls-20{fill:#cd2f35;}.cls-21{fill:#ce3036;}.cls-22{fill:#cf3138;}.cls-23{fill:#d03139;}.cls-24{fill:#d2323a;}.cls-25{fill:#d3333b;}.cls-26{fill:#d4343c;}.cls-27{fill:#d5353d;}.cls-28{fill:#d7363e;}.cls-29{fill:#d83740;}.cls-30{fill:#d93741;}.cls-31{fill:#da3842;}.cls-32{fill:#dc3943;}.cls-33{fill:#dd3a45;}.cls-34{fill:#df3b46;}.cls-35{fill:#e03c47;}.cls-36{fill:#e13d48;}.cls-37{fill:#e33e49;}.cls-38{fill:#e53e4b;}.cls-39{fill:#e63f4c;}.cls-40{fill:#e8404d;}.cls-41{fill:#ea414f;}.cls-42{fill:#ed4250;}.cls-43{fill:#ef4351;}.cls-44{fill:#ef4753;}.cls-45{fill:#f04b56;}.cls-46{fill:#f04e58;}.cls-47{fill:#f0525a;}.cls-48{fill:#f0555c;}.cls-49{fill:#f1585f;}.cls-50{fill:#f15b61;}.cls-51{fill:#f15e63;}.cls-52{fill:#f16165;}.cls-53{fill:#f16468;}.cls-54{fill:#f2676a;}.cls-55{fill:#f26a6d;}.cls-56{fill:#f26d6f;}.cls-57{fill:#f27072;}.cls-58{fill:#f37374;}.cls-59{fill:#f37577;}.cls-60{fill:#f37879;}.cls-61{fill:#f37b7c;}.cls-62{fill:#f37d7f;}.cls-63{fill:#f38081;}.cls-64{fill:#f48284;}.cls-65{fill:#f48587;}.cls-66{fill:#f4878a;}.cls-67{fill:#f48a8d;}.cls-68{fill:#f58c90;}.cls-69{fill:#f58f92;}.cls-70{fill:#f59195;}.cls-71{fill:#f59498;}.cls-72{fill:#f5969b;}.cls-73{fill:#f6999e;}.cls-74{fill:#f69ba1;}.cls-75{fill:#f69ea4;}.cls-76{fill:#f6a1a7;}.cls-77{fill:#f7a3ab;}.cls-78{fill:#f7a6ae;}.cls-79{fill:#f7a8b1;}.cls-80{fill:#f7abb4;}.cls-81{fill:#f7aeb8;}.cls-82{fill:#f7b0bb;}.cls-83{fill:#f8b3be;}.cls-84{fill:#f8b6c2;}.cls-85{fill:#f8b9c6;}.cls-86{fill:#048799;}.cls-87{fill:#04889a;}.cls-88{fill:#04899b;}.cls-89{fill:#03899b;}.cls-90{fill:#038a9c;}.cls-91{fill:#038b9d;}.cls-92{fill:#038c9d;}.cls-93{fill:#038c9e;}.cls-94{fill:#038d9f;}.cls-95{fill:#028ea0;}.cls-96{fill:#028fa0;}.cls-97{fill:#0290a1;}.cls-98{fill:#0290a2;}.cls-99{fill:#0191a3;}.cls-100{fill:#0192a3;}.cls-101{fill:#0193a4;}.cls-102{fill:#0093a5;}.cls-103{fill:#0094a6;}.cls-104{fill:#0095a6;}.cls-105{fill:#0096a7;}.cls-106{fill:#0097a8;}.cls-107{fill:#0097a9;}.cls-108{fill:#0098a9;}.cls-109{fill:#09a;}.cls-110{fill:#009aab;}.cls-111{fill:#009bac;}.cls-112{fill:#009cad;}.cls-113{fill:#009dae;}.cls-114{fill:#009eaf;}.cls-115{fill:#009fb0;}.cls-116{fill:#00a0b1;}.cls-117{fill:#00a1b2;}.cls-118{fill:#00a2b3;}.cls-119{fill:#00a3b4;}.cls-120{fill:#00a4b5;}.cls-121{fill:#00a5b6;}.cls-122{fill:#00a6b6;}.cls-123{fill:#00a7b7;}.cls-124{fill:#00a7b8;}.cls-125{fill:#00a8b9;}.cls-126{fill:#00a9ba;}.cls-127{fill:#0aaaba;}.cls-128{fill:#15abbb;}.cls-129{fill:#1cabbb;}.cls-130{fill:#22acbc;}.cls-131{fill:#28adbc;}.cls-132{fill:#2cadbd;}.cls-133{fill:#31aebd;}.cls-134{fill:#34afbd;}.cls-135{fill:#38b0be;}.cls-136{fill:#3bb0be;}.cls-137{fill:#3eb1bf;}.cls-138{fill:#42b2bf;}.cls-139{fill:#44b3c0;}.cls-140{fill:#47b3c0;}.cls-141{fill:#4ab4c1;}.cls-142{fill:#4db5c1;}.cls-143{fill:#4fb6c2;}.cls-144{fill:#52b7c2;}.cls-145{fill:#54b7c3;}.cls-146{fill:#57b8c3;}.cls-147{fill:#59b9c3;}.cls-148{fill:#5bbac4;}.cls-149{fill:#5ebac4;}.cls-150{fill:#60bbc5;}.cls-151{fill:#62bcc5;}.cls-152{fill:#64bdc6;}.cls-153{fill:#66bdc6;}.cls-154{fill:#69bec7;}.cls-155{fill:#6bbfc7;}.cls-156{fill:#6dc0c8;}.cls-157{fill:#6fc1c8;}.cls-158{fill:#71c2c9;}.cls-159{fill:#73c3c9;}.cls-160{fill:#75c3ca;}.cls-161{fill:#77c4ca;}.cls-162{fill:#78c5cb;}.cls-163{fill:#7ac6cb;}.cls-164{fill:#7cc7cc;}.cls-165{fill:#7ec8cc;}.cls-166{fill:#80c9cd;}.cls-167{fill:#82cacd;}.cls-168{fill:#84cace;}</style></defs><g id="Layer_1" data-name="Layer 1"><rect class="cls-1" x="11.08" y="0.47" width="5.17" height="1.44"/><rect class="cls-2" x="10.95" y="0.47" width="5.17" height="1.44"/><rect class="cls-3" x="10.83" y="0.47" width="5.17" height="1.44"/><rect class="cls-4" x="10.71" y="0.47" width="5.17" height="1.44"/><rect class="cls-5" x="10.58" y="0.47" width="5.17" height="1.44"/><rect class="cls-6" x="10.46" y="0.47" width="5.17" height="1.44"/><rect class="cls-7" x="10.34" y="0.47" width="5.17" height="1.44"/><rect class="cls-8" x="10.21" y="0.47" width="5.17" height="1.44"/><rect class="cls-9" x="10.09" y="0.47" width="5.17" height="1.44"/><rect class="cls-10" x="9.97" y="0.47" width="5.17" height="1.44"/><rect class="cls-11" x="9.85" y="0.47" width="5.17" height="1.44"/><rect class="cls-12" x="9.72" y="0.47" width="5.17" height="1.44"/><rect class="cls-13" x="9.6" y="0.47" width="5.17" height="1.44"/><rect class="cls-14" x="9.48" y="0.47" width="5.17" height="1.44"/><rect class="cls-15" x="9.35" y="0.47" width="5.17" height="1.44"/><rect class="cls-16" x="9.23" y="0.47" width="5.17" height="1.44"/><rect class="cls-17" x="9.11" y="0.47" width="5.17" height="1.44"/><rect class="cls-18" x="8.98" y="0.47" width="5.17" height="1.44"/><rect class="cls-19" x="8.86" y="0.47" width="5.17" height="1.44"/><rect class="cls-20" x="8.74" y="0.47" width="5.17" height="1.44"/><rect class="cls-21" x="8.61" y="0.47" width="5.17" height="1.44"/><rect class="cls-22" x="8.49" y="0.47" width="5.17" height="1.44"/><rect class="cls-23" x="8.37" y="0.47" width="5.17" height="1.44"/><rect class="cls-24" x="8.25" y="0.47" width="5.17" height="1.44"/><rect class="cls-25" x="8.12" y="0.47" width="5.17" height="1.44"/><rect class="cls-26" x="8" y="0.47" width="5.17" height="1.44"/><rect class="cls-27" x="7.88" y="0.47" width="5.17" height="1.44"/><rect class="cls-28" x="7.75" y="0.47" width="5.17" height="1.44"/><rect class="cls-29" x="7.63" y="0.47" width="5.17" height="1.44"/><rect class="cls-30" x="7.51" y="0.47" width="5.17" height="1.44"/><rect class="cls-31" x="7.38" y="0.47" width="5.17" height="1.44"/><rect class="cls-32" x="7.26" y="0.47" width="5.17" height="1.44"/><rect class="cls-33" x="7.14" y="0.47" width="5.17" height="1.44"/><rect class="cls-34" x="7.01" y="0.47" width="5.17" height="1.44"/><rect class="cls-35" x="6.89" y="0.47" width="5.17" height="1.44"/><rect class="cls-36" x="6.77" y="0.47" width="5.17" height="1.44"/><rect class="cls-37" x="6.65" y="0.47" width="5.17" height="1.44"/><rect class="cls-38" x="6.52" y="0.47" width="5.17" height="1.44"/><rect class="cls-39" x="6.4" y="0.47" width="5.17" height="1.44"/><rect class="cls-40" x="6.28" y="0.47" width="5.17" height="1.44"/><rect class="cls-41" x="6.15" y="0.47" width="5.17" height="1.44"/><rect class="cls-42" x="6.03" y="0.47" width="5.17" height="1.44"/><rect class="cls-43" x="5.91" y="0.47" width="5.17" height="1.44"/><rect class="cls-44" x="5.78" y="0.47" width="5.17" height="1.44"/><rect class="cls-45" x="5.66" y="0.47" width="5.17" height="1.44"/><rect class="cls-46" x="5.54" y="0.47" width="5.17" height="1.44"/><rect class="cls-47" x="5.41" y="0.47" width="5.17" height="1.44"/><rect class="cls-48" x="5.29" y="0.47" width="5.17" height="1.44"/><rect class="cls-49" x="5.17" y="0.47" width="5.17" height="1.44"/><rect class="cls-50" x="5.05" y="0.47" width="5.17" height="1.44"/><rect class="cls-51" x="4.92" y="0.47" width="5.17" height="1.44"/><rect class="cls-52" x="4.8" y="0.47" width="5.17" height="1.44"/><rect class="cls-53" x="4.68" y="0.47" width="5.17" height="1.44"/><rect class="cls-54" x="4.55" y="0.47" width="5.17" height="1.44"/><rect class="cls-55" x="4.43" y="0.47" width="5.17" height="1.44"/><rect class="cls-56" x="4.31" y="0.47" width="5.17" height="1.44"/><rect class="cls-57" x="4.18" y="0.47" width="5.17" height="1.44"/><rect class="cls-58" x="4.06" y="0.47" width="5.17" height="1.44"/><rect class="cls-59" x="3.94" y="0.47" width="5.17" height="1.44"/><rect class="cls-60" x="3.82" y="0.47" width="5.17" height="1.44"/><rect class="cls-61" x="3.69" y="0.47" width="5.17" height="1.44"/><rect class="cls-62" x="3.57" y="0.47" width="5.17" height="1.44"/><rect class="cls-63" x="3.45" y="0.47" width="5.17" height="1.44"/><rect class="cls-64" x="3.32" y="0.47" width="5.17" height="1.44"/><rect class="cls-65" x="3.2" y="0.47" width="5.17" height="1.44"/><rect class="cls-66" x="3.08" y="0.47" width="5.17" height="1.44"/><rect class="cls-67" x="2.95" y="0.47" width="5.17" height="1.44"/><rect class="cls-68" x="2.83" y="0.47" width="5.17" height="1.44"/><rect class="cls-69" x="2.71" y="0.47" width="5.17" height="1.44"/><rect class="cls-70" x="2.58" y="0.47" width="5.17" height="1.44"/><rect class="cls-71" x="2.46" y="0.47" width="5.17" height="1.44"/><rect class="cls-72" x="2.34" y="0.47" width="5.17" height="1.44"/><rect class="cls-73" x="2.22" y="0.47" width="5.17" height="1.44"/><rect class="cls-74" x="2.09" y="0.47" width="5.17" height="1.44"/><rect class="cls-75" x="1.97" y="0.47" width="5.17" height="1.44"/><rect class="cls-76" x="1.85" y="0.47" width="5.17" height="1.44"/><rect class="cls-77" x="1.72" y="0.47" width="5.17" height="1.44"/><rect class="cls-78" x="1.6" y="0.47" width="5.17" height="1.44"/><rect class="cls-79" x="1.48" y="0.47" width="5.17" height="1.44"/><rect class="cls-80" x="1.35" y="0.47" width="5.17" height="1.44"/><rect class="cls-81" x="1.23" y="0.47" width="5.17" height="1.44"/><rect class="cls-82" x="1.11" y="0.47" width="5.17" height="1.44"/><rect class="cls-83" x="0.98" y="0.47" width="5.17" height="1.44"/><rect class="cls-84" x="0.86" y="0.47" width="5.17" height="1.44"/><rect class="cls-85" x="0.74" y="0.47" width="5.17" height="1.44"/><rect class="cls-86" x="11.08" y="2.23" width="5.17" height="1.43"/><rect class="cls-87" x="10.95" y="2.23" width="5.17" height="1.43"/><rect class="cls-88" x="10.83" y="2.23" width="5.17" height="1.43"/><rect class="cls-89" x="10.71" y="2.23" width="5.17" height="1.43"/><rect class="cls-90" x="10.58" y="2.23" width="5.17" height="1.43"/><rect class="cls-91" x="10.46" y="2.23" width="5.17" height="1.43"/><rect class="cls-92" x="10.34" y="2.23" width="5.17" height="1.43"/><rect class="cls-93" x="10.21" y="2.23" width="5.17" height="1.43"/><rect class="cls-94" x="10.09" y="2.23" width="5.17" height="1.43"/><rect class="cls-95" x="9.97" y="2.23" width="5.17" height="1.43"/><rect class="cls-96" x="9.85" y="2.23" width="5.17" height="1.43"/><rect class="cls-97" x="9.72" y="2.23" width="5.17" height="1.43"/><rect class="cls-98" x="9.6" y="2.23" width="5.17" height="1.43"/><rect class="cls-99" x="9.48" y="2.23" width="5.17" height="1.43"/><rect class="cls-100" x="9.35" y="2.23" width="5.17" height="1.43"/><rect class="cls-101" x="9.23" y="2.23" width="5.17" height="1.43"/><rect class="cls-102" x="9.11" y="2.23" width="5.17" height="1.43"/><rect class="cls-103" x="8.98" y="2.23" width="5.17" height="1.43"/><rect class="cls-104" x="8.86" y="2.23" width="5.17" height="1.43"/><rect class="cls-105" x="8.74" y="2.23" width="5.17" height="1.43"/><rect class="cls-106" x="8.61" y="2.23" width="5.17" height="1.43"/><rect class="cls-107" x="8.49" y="2.23" width="5.17" height="1.43"/><rect class="cls-108" x="8.37" y="2.23" width="5.17" height="1.43"/><rect class="cls-109" x="8.25" y="2.23" width="5.17" height="1.43"/><rect class="cls-110" x="8.12" y="2.23" width="5.17" height="1.43"/><rect class="cls-111" x="8" y="2.23" width="5.17" height="1.43"/><rect class="cls-111" x="7.88" y="2.23" width="5.17" height="1.43"/><rect class="cls-112" x="7.75" y="2.23" width="5.17" height="1.43"/><rect class="cls-113" x="7.63" y="2.23" width="5.17" height="1.43"/><rect class="cls-114" x="7.51" y="2.23" width="5.17" height="1.43"/><rect class="cls-115" x="7.38" y="2.23" width="5.17" height="1.43"/><rect class="cls-116" x="7.26" y="2.23" width="5.17" height="1.43"/><rect class="cls-116" x="7.14" y="2.23" width="5.17" height="1.43"/><rect class="cls-117" x="7.01" y="2.23" width="5.17" height="1.43"/><rect class="cls-118" x="6.89" y="2.23" width="5.17" height="1.43"/><rect class="cls-119" x="6.77" y="2.23" width="5.17" height="1.43"/><rect class="cls-120" x="6.65" y="2.23" width="5.17" height="1.43"/><rect class="cls-121" x="6.52" y="2.23" width="5.17" height="1.43"/><rect class="cls-122" x="6.4" y="2.23" width="5.17" height="1.43"/><rect class="cls-123" x="6.28" y="2.23" width="5.17" height="1.43"/><rect class="cls-124" x="6.15" y="2.23" width="5.17" height="1.43"/><rect class="cls-125" x="6.03" y="2.23" width="5.17" height="1.43"/><rect class="cls-126" x="5.91" y="2.23" width="5.17" height="1.43"/><rect class="cls-127" x="5.78" y="2.23" width="5.17" height="1.43"/><rect class="cls-128" x="5.66" y="2.23" width="5.17" height="1.43"/><rect class="cls-129" x="5.54" y="2.23" width="5.17" height="1.43"/><rect class="cls-130" x="5.41" y="2.23" width="5.17" height="1.43"/><rect class="cls-131" x="5.29" y="2.23" width="5.17" height="1.43"/><rect class="cls-132" x="5.17" y="2.23" width="5.17" height="1.43"/><rect class="cls-133" x="5.05" y="2.23" width="5.17" height="1.43"/><rect class="cls-134" x="4.92" y="2.23" width="5.17" height="1.43"/><rect class="cls-135" x="4.8" y="2.23" width="5.17" height="1.43"/><rect class="cls-136" x="4.68" y="2.23" width="5.17" height="1.43"/><rect class="cls-137" x="4.55" y="2.23" width="5.17" height="1.43"/><rect class="cls-138" x="4.43" y="2.23" width="5.17" height="1.43"/><rect class="cls-139" x="4.31" y="2.23" width="5.17" height="1.43"/><rect class="cls-140" x="4.18" y="2.23" width="5.17" height="1.43"/><rect class="cls-141" x="4.06" y="2.23" width="5.17" height="1.43"/><rect class="cls-142" x="3.94" y="2.23" width="5.17" height="1.43"/><rect class="cls-143" x="3.82" y="2.23" width="5.17" height="1.43"/><rect class="cls-144" x="3.69" y="2.23" width="5.17" height="1.43"/><rect class="cls-145" x="3.57" y="2.23" width="5.17" height="1.43"/><rect class="cls-146" x="3.45" y="2.23" width="5.17" height="1.43"/><rect class="cls-147" x="3.32" y="2.23" width="5.17" height="1.43"/><rect class="cls-148" x="3.2" y="2.23" width="5.17" height="1.43"/><rect class="cls-149" x="3.08" y="2.23" width="5.17" height="1.43"/><rect class="cls-150" x="2.95" y="2.23" width="5.17" height="1.43"/><rect class="cls-151" x="2.83" y="2.23" width="5.17" height="1.43"/><rect class="cls-152" x="2.71" y="2.23" width="5.17" height="1.43"/><rect class="cls-153" x="2.58" y="2.23" width="5.17" height="1.43"/><rect class="cls-154" x="2.46" y="2.23" width="5.17" height="1.43"/><rect class="cls-155" x="2.34" y="2.23" width="5.17" height="1.43"/><rect class="cls-156" x="2.22" y="2.23" width="5.17" height="1.43"/><rect class="cls-157" x="2.09" y="2.23" width="5.17" height="1.43"/><rect class="cls-158" x="1.97" y="2.23" width="5.17" height="1.43"/><rect class="cls-159" x="1.85" y="2.23" width="5.17" height="1.43"/><rect class="cls-160" x="1.72" y="2.23" width="5.17" height="1.43"/><rect class="cls-161" x="1.6" y="2.23" width="5.17" height="1.43"/><rect class="cls-162" x="1.48" y="2.23" width="5.17" height="1.43"/><rect class="cls-163" x="1.35" y="2.23" width="5.17" height="1.43"/><rect class="cls-164" x="1.23" y="2.23" width="5.17" height="1.43"/><rect class="cls-165" x="1.11" y="2.23" width="5.17" height="1.43"/><rect class="cls-166" x="0.98" y="2.23" width="5.17" height="1.43"/><rect class="cls-167" x="0.86" y="2.23" width="5.17" height="1.43"/><rect class="cls-168" x="0.74" y="2.23" width="5.17" height="1.43"/></g></svg>