<svg xmlns="http://www.w3.org/2000/svg" viewBox="0 0 10 20"><defs><style>.cls-1{fill:#231f20;}.cls-2{fill:#ed1c24;}.cls-3{fill:#fff;}.cls-4{fill:#d8d9d8;}</style></defs><g id="Layer_1" data-name="Layer 1"><path class="cls-1" d="M8.22,1.83a.73.73,0,0,1-.16.22.46.46,0,0,1-.22.15.71.71,0,0,0,.25-.41Z"/><path class="cls-2" d="M8.05,2.33c-.05.16-.42.36-.42.36a1.78,1.78,0,0,1-.24.08,1.85,1.85,0,0,1-1.21,0h0c-.77-.29,0-.25,0-.25s.91,0,1.21-.37S7.84,2,7.84,2a.18.18,0,0,1,.1.14h0a.08.08,0,0,1,0,0H8A.13.13,0,0,1,8.05,2.33Z"/><path class="cls-3" d="M7.54,2.15a.52.52,0,0,1,.11-.1l.06,0s.06,0,.08,0h0l0,0-.07,0-.12,0Z"/><path class="cls-4" d="M7.39,2.77a1.85,1.85,0,0,1-1.21,0c0-.07,0-.12,0-.12a1,1,0,0,1,1,0Z"/><path class="cls-4" d="M7.24,4.39l.15.19A.34.34,0,0,0,7.24,4.39Z"/><path class="cls-4" d="M9.83,8.51a.72.72,0,0,1-1,0L7.47,7.06C7.29,9.25,6.77,12,6.77,12V12l-.55,6.07c0,.71-.37,1.3-.81,1.3H3.29c-.44,0-.8-.59-.8-1.3L1.93,12V12A1.22,1.22,0,0,1,.82,10.83L.56,5.37c0-.65.59-1,1.32-1H3.17A2.06,2.06,0,1,1,6.26,1.9a2.54,2.54,0,0,1,.13.45.71.71,0,0,0-.7-.05.8.8,0,0,0,.39,1.52,2.13,2.13,0,0,1-.53.55H7.19l0,0h0l.15.19L7.73,5,7.22,3.57c-.44,0-.87,0-1-.14a1,1,0,0,1-.07-.68,1.85,1.85,0,0,0,1.21,0c.21.16.42.35.58.49l.34-.12L10,7.9h0A.49.49,0,0,1,9.83,8.51Z"/></g></svg>