<svg xmlns="http://www.w3.org/2000/svg" viewBox="0 0 10 20"><defs><style>.cls-1{fill:#d8d9d8;}.cls-2{fill:#58595b;}.cls-3{fill:#231f20;}.cls-4{fill:#dfa626;}.cls-5{fill:#eec547;}.cls-6{fill:#6f7170;}.cls-7{fill:#f1dd47;}</style></defs><g id="Layer_1" data-name="Layer 1"><path class="cls-1" d="M8.11,5.37l-.26,5.46A1.23,1.23,0,0,1,6.77,12V12l-.55,6.07c0,.71-.36,1.3-.81,1.3H3.3c-.45,0-.81-.59-.81-1.3L1.94,12V12A1.22,1.22,0,0,1,.82,10.83L.56,5.37c0-.64.6-1,1.33-1H3.18A2,2,0,0,1,2.3,2.69a2.06,2.06,0,0,1,4.12,0,2,2,0,0,1-.87,1.68H6.79C7.52,4.37,8.11,4.73,8.11,5.37Z"/><path class="cls-2" d="M9.4,19.65l-.69-.24a.2.2,0,0,1-.2-.2l-.26-.72c0-.07.35-.3.46-.3h.82a.2.2,0,0,1,.2.2v.82a.89.89,0,0,1-.33.44"/>

<path class="cls-3" d="M9.31,19.68H8.42a.2.2,0,0,1-.2-.2v-.89a.2.2,0,0,1,.2-.2h.89a.2.2,0,0,1,.2.2v.89a.2.2,0,0,1-.2.2"/><polygon class="cls-4" points="9.57 18.61 9.57 19.3 9.82 19.3 9.57 18.61"/><polygon class="cls-5" points="9.97 19.22 9.82 19.3 9.57 18.61 9.71 18.54 9.97 19.22"/><path class="cls-4" d="M8.89,18.16c0,.13-.27.13-.27.13S8.55.65,8.55.86s.34,0,.34-.22Z"/><path class="cls-6" d="M9.34.85A3.84,3.84,0,0,0,8.88.64s-.19.28-.32.22.33.17.47.25S9.62,1,9.34.85M9.14,1C9,1,9.13.85,9.22.85s0,.19-.08.19"/><path class="cls-7" d="M8.61,5.26s.21,0,.24-.11"/><path class="cls-3" d="M8.61,5.22a.29.29,0,0,0,.13,0s.09,0,.11-.07a.18.18,0,0,1-.1.11l-.14,0Z"/><path class="cls-7" d="M8.61,1.24s.21,0,.24-.12"/><path class="cls-3" d="M8.61,1.2a.57.57,0,0,0,.13,0,.15.15,0,0,0,.11-.08.16.16,0,0,1-.1.11l-.14,0Z"/><path class="cls-7" d="M8.61,9.29s.21,0,.24-.12"/><path class="cls-3" d="M8.61,9.25h.13a.15.15,0,0,0,.11-.08.16.16,0,0,1-.1.11l-.14,0Z"/><path class="cls-7" d="M8.61,13.31s.21,0,.24-.11"/><path class="cls-3" d="M8.61,13.27h.13s.09,0,.11-.07-.06.08-.1.11l-.14,0Z"/><path class="cls-7" d="M8.61,17.33s.21,0,.24-.11"/><path class="cls-3" d="M8.61,17.3h.13a.15.15,0,0,0,.11-.08.16.16,0,0,1-.1.11l-.14,0Z"/></g></svg>